<?xml version="1.0" ?><svg viewBox="0 0 60 60" xmlns="http://www.w3.org/2000/svg"><title/><g id="colour"><polygon fill="#eaad3f" points="41 1 41 51.345 19 59 19 9.624 41 1"/><path d="M31.73125,24a.99974.99974,0,0,1,1-1h4a.99974.99974,0,0,1,1,1c0,2.68262,0,5-3,5S31.73125,26.68262,31.73125,24Zm2.00684,1c.03418,2,.21924,2,.99316,2s.959,0,.99316-2Z" fill="#e09b2d"/><path d="M31.96709,20.64453a6.93744,6.93744,0,0,1-1.18945-7.34668A3.51046,3.51046,0,0,1,33.73125,11,3.4956,3.4956,0,0,1,36.407,12.46875a9.30455,9.30455,0,0,1,1.2998,7.751A.99988.99988,0,0,1,36.73125,21h-4A.999.999,0,0,1,31.96709,20.64453ZM34.845,13.71875A1.61211,1.61211,0,0,0,33.73125,13c-.30322,0-.792.3916-1.14014,1.14063A4.87621,4.87621,0,0,0,33.21758,19H35.9002A7.07246,7.07246,0,0,0,34.845,13.71875Z" fill="#e09b2d"/><path d="M31.73125,44a.99974.99974,0,0,1,1-1h4a.99974.99974,0,0,1,1,1c0,2.68262,0,5-3,5S31.73125,46.68262,31.73125,44Zm2.00684,1c.03418,2,.21924,2,.99316,2s.959,0,.99316-2Z" fill="#e09b2d"/><path d="M31.96709,40.64453a6.93744,6.93744,0,0,1-1.18945-7.34668A3.51046,3.51046,0,0,1,33.73125,31,3.4956,3.4956,0,0,1,36.407,32.46875a9.30455,9.30455,0,0,1,1.2998,7.751A.99988.99988,0,0,1,36.73125,41h-4A.999.999,0,0,1,31.96709,40.64453ZM34.845,33.71875A1.61211,1.61211,0,0,0,33.73125,33c-.30322,0-.792.3916-1.14014,1.14063A4.87621,4.87621,0,0,0,33.21758,39H35.9002A7.07246,7.07246,0,0,0,34.845,33.71875Z" fill="#e09b2d"/><path d="M25.26875,39c-3,0-3-2.31738-3-5a.99974.99974,0,0,1,1-1h4a.99974.99974,0,0,1,1,1C28.26875,36.68262,28.26875,39,25.26875,39Zm-.99316-4c.03418,2,.21924,2,.99316,2s.959,0,.99316-2Z" fill="#e09b2d"/><path d="M27.26875,31h-4a.99988.99988,0,0,1-.97559-.78027,9.30455,9.30455,0,0,1,1.2998-7.751A3.4956,3.4956,0,0,1,26.26875,21a3.51046,3.51046,0,0,1,2.95361,2.29785,6.93744,6.93744,0,0,1-1.18945,7.34668A.999.999,0,0,1,27.26875,31ZM24.0998,29h2.68262a4.87621,4.87621,0,0,0,.62646-4.85937C27.06074,23.3916,26.572,23,26.26875,23a1.61211,1.61211,0,0,0-1.11377.71875A7.07246,7.07246,0,0,0,24.0998,29Z" fill="#e09b2d"/><path d="M27,29c3-3.55556,1-8-1-8s-4,3.55556-3,8h4" fill="#3a3a3a"/><path d="M33,39c-3-3.55556-1-8,1-8s4,3.55556,3,8H33" fill="#3a3a3a"/><path d="M33,19c-3-3.55556-1-8,1-8s4,3.55556,3,8H33" fill="#3a3a3a"/><polygon fill="#f9c553" points="59 9.461 59 59 41 51.48 41 1 59 9.461"/><polygon fill="#f9c553" points="19 10.169 19 59 1 50.74 1 1 19 10.169"/><path d="M33,43h4c0,2.76367,0,4-2,4s-2-1.23633-2-4" fill="#3a3a3a"/><path d="M27,33H23c0,2.76367,0,4,2,4s2-1.23633,2-4" fill="#3a3a3a"/><path d="M33,23h4c0,2.76367,0,4-2,4s-2-1.23633-2-4" fill="#3a3a3a"/></g><g data-name="Layer 1" id="Layer_1"><path d="M37,42.00036H33a.99974.99974,0,0,0-1,1c0,2.68262,0,5,3,5s3-2.31738,3-5A.99974.99974,0,0,0,37,42.00036Zm-2,4c-.77393,0-.959,0-.99316-2h1.98633C35.959,46.00036,35.77393,46.00036,35,46.00036Z"/><path d="M34,30.00036a3.51046,3.51046,0,0,0-2.95361,2.29785,6.93744,6.93744,0,0,0,1.18945,7.34668A.999.999,0,0,0,33,40.00036h4a.99988.99988,0,0,0,.97559-.78027,9.30455,9.30455,0,0,0-1.2998-7.751A3.4956,3.4956,0,0,0,34,30.00036Zm2.16895,8H33.48633a4.87621,4.87621,0,0,1-.62646-4.85937c.34814-.749.83691-1.14062,1.14014-1.14062a1.61211,1.61211,0,0,1,1.11377.71875A7.07246,7.07246,0,0,1,36.16895,38.00036Z"/><path d="M27,32.00036H23a.99974.99974,0,0,0-1,1c0,2.68262,0,5,3,5s3-2.31738,3-5A.99974.99974,0,0,0,27,32.00036Zm-2,4c-.77393,0-.959,0-.99316-2h1.98633C25.959,36.00036,25.77393,36.00036,25,36.00036Z"/><path d="M26,20.00036a3.4956,3.4956,0,0,0-2.67578,1.46875,9.30455,9.30455,0,0,0-1.2998,7.751A.99988.99988,0,0,0,23,30.00036h4a.999.999,0,0,0,.76416-.35547,6.93744,6.93744,0,0,0,1.18945-7.34668A3.51046,3.51046,0,0,0,26,20.00036Zm.51367,8H23.83106a7.07246,7.07246,0,0,1,1.05518-5.28125A1.61211,1.61211,0,0,1,26,22.00036c.30322,0,.792.3916,1.14014,1.14063A4.87621,4.87621,0,0,1,26.51367,28.00036Z"/><path d="M37,22.00036H33a.99974.99974,0,0,0-1,1c0,2.68262,0,5,3,5s3-2.31738,3-5A.99974.99974,0,0,0,37,22.00036Zm-2,4c-.77393,0-.959,0-.99316-2h1.98633C35.959,26.00036,35.77393,26.00036,35,26.00036Z"/><path d="M33,20.00036h4a.99988.99988,0,0,0,.97559-.78027,9.30455,9.30455,0,0,0-1.2998-7.751A3.4956,3.4956,0,0,0,34,10.00036a3.51046,3.51046,0,0,0-2.95361,2.29785,6.93744,6.93744,0,0,0,1.18945,7.34668A.999.999,0,0,0,33,20.00036ZM32.85986,13.141c.34814-.749.83691-1.14062,1.14014-1.14062a1.61211,1.61211,0,0,1,1.11377.71875,7.07246,7.07246,0,0,1,1.05518,5.28125H33.48633A4.87621,4.87621,0,0,1,32.85986,13.141Z"/><path d="M59.44727,9.10582l-18-9a.99921.99921,0,0,0-.82568-.03125L19.0415,8.9027,1.44727.10582A1.0001,1.0001,0,0,0,0,1.00036v50a1.00106,1.00106,0,0,0,.59375.91406l18,8a.99694.99694,0,0,0,.748.02539L40.9624,52.07848l17.63135,7.83594A.99992.99992,0,0,0,60,59.00036v-49A1.0004,1.0004,0,0,0,59.44727,9.10582ZM20,10.67186,40,2.4901V50.30022L20,57.57232ZM2,2.61852l16,8V57.46111L2,50.35094ZM58,57.46129,42,50.35021V2.61876l16,7.99976Z"/></g></svg>