<?xml version="1.0" ?><svg height="512" preserveAspectRatio="xMidYMid" viewBox="0 0 512 512" width="512" xmlns="http://www.w3.org/2000/svg" xmlns:xlink="http://www.w3.org/1999/xlink"><defs><style>
      .cls-1 {
        fill: #fff;
      }

      .cls-2 {
        fill: #1589bd;
      }

      .cls-2, .cls-3 {
        fill-rule: evenodd;
      }

      .cls-3 {
        fill: #000;
        opacity: 0.1;
      }
    </style></defs><circle class="cls-1" cx="256" cy="256" r="256"/><path class="cls-2" d="M256.000,512.000 C114.615,512.000 0.000,397.385 0.000,256.000 C0.000,114.615 114.615,0.000 256.000,0.000 C397.385,0.000 512.000,114.615 512.000,256.000 C512.000,397.385 397.385,512.000 256.000,512.000 ZM222.000,95.000 C128.112,95.000 52.000,171.112 52.000,265.000 C52.000,358.888 128.112,435.000 222.000,435.000 C315.888,435.000 392.000,358.888 392.000,265.000 C392.000,171.112 315.888,95.000 222.000,95.000 ZM299.882,394.376 C291.374,399.509 366.907,231.873 357.967,199.271 C367.591,219.141 372.987,241.441 372.987,265.000 C372.987,319.895 343.691,367.947 299.882,394.376 ZM244.368,192.303 C244.368,192.303 256.283,193.057 263.382,191.184 C270.480,189.311 268.903,177.282 258.908,178.882 C248.913,180.481 188.492,179.564 179.500,178.882 C166.802,177.918 169.520,188.191 176.145,190.066 C185.726,192.777 194.039,193.421 194.039,193.421 L217.526,260.526 L185.092,355.592 L130.289,192.303 C130.289,192.303 137.904,192.303 145.947,192.303 C153.991,192.303 155.323,179.386 145.947,178.882 L97.160,180.051 C124.339,140.186 170.113,114.013 222.000,114.013 C261.211,114.013 296.932,128.960 323.774,153.468 C269.087,161.355 319.909,225.133 324.895,244.868 C329.881,264.604 299.171,354.474 299.171,354.474 L244.368,192.303 ZM71.013,265.000 C71.013,243.671 75.436,223.376 83.414,204.980 L155.216,400.452 C105.327,375.807 71.013,324.410 71.013,265.000 ZM272.824,407.219 C256.943,412.895 239.832,415.987 222.000,415.987 C207.402,415.987 193.288,413.915 179.936,410.050 L225.355,280.658 L272.824,407.219 Z"/><path class="cls-3" d="M436.999,75.012 C536.959,174.972 536.959,337.039 436.999,436.999 C337.039,536.959 174.972,536.959 75.012,436.999 "/></svg>