<?xml version="1.0" ?><svg enable-background="new 0 0 64 64" height="64px" id="Layer_1" version="1.1" viewBox="0 0 64 64" width="64px" xml:space="preserve" xmlns="http://www.w3.org/2000/svg" xmlns:xlink="http://www.w3.org/1999/xlink"><circle cx="32" cy="32" fill="#C75C5C" r="32"/><g opacity="0.2"><path d="M50,27c-0.084,0-0.17-0.011-0.256-0.034l-34-9c-0.534-0.142-0.852-0.689-0.711-1.223   c0.141-0.534,0.684-0.852,1.223-0.711l34,9c0.534,0.142,0.852,0.689,0.711,1.223C50.848,26.704,50.443,27,50,27z" fill="#231F20"/></g><line fill="none" stroke="#E0E0D1" stroke-linecap="round" stroke-miterlimit="10" stroke-width="2" x1="50" x2="16" y1="24" y2="15"/><path d="M52,47c0,1.105-0.895,2-2,2H14c-1.105,0-2-0.895-2-2V27c0-1.105,0.895-2,2-2h36  c1.105,0,2,0.895,2,2V47z" fill="#231F20" opacity="0.2"/><path d="M52,45c0,1.105-0.895,2-2,2H14c-1.105,0-2-0.895-2-2V25c0-1.105,0.895-2,2-2h36c1.105,0,2,0.895,2,2V45z" fill="#F5CF87"/><g><circle cx="24" cy="35" fill="#4F5D73" r="8"/></g><g opacity="0.2"><g><path d="M24,29c4.079,0,7.438,3.055,7.931,7C31.972,35.672,32,35.339,32,35c0-4.418-3.582-8-8-8    c-4.418,0-8,3.582-8,8c0,0.339,0.028,0.672,0.069,1C16.562,32.055,19.921,29,24,29z" fill="#231F20"/></g></g><circle cx="36.5" cy="42.5" fill="#231F20" opacity="0.2" r="1.5"/><circle cx="41.5" cy="42.5" fill="#231F20" opacity="0.2" r="1.5"/><circle cx="46.5" cy="42.5" fill="#231F20" opacity="0.2" r="1.5"/><circle cx="36.5" cy="41.5" fill="#4F5D73" r="1.5"/><circle cx="41.5" cy="41.5" fill="#4F5D73" r="1.5"/><circle cx="46.5" cy="41.5" fill="#4F5D73" r="1.5"/><path d="M48,35c0,1.105-0.895,2-2,2h-9c-1.105,0-2-0.895-2-2v-5c0-1.105,0.895-2,2-2h9c1.105,0,2,0.895,2,2V35z" fill="#FFFFFF"/><g opacity="0.2"><path d="M46,28h-9c-1.105,0-2,0.895-2,2v2c0-1.105,0.895-2,2-2h9c1.105,0,2,0.895,2,2v-2C48,28.895,47.105,28,46,28   z" fill="#231F20"/></g></svg>