<?xml version="1.0" ?><svg viewBox="0 0 64 64" xmlns="http://www.w3.org/2000/svg"><defs><style>.cls-1{fill:#aa7b50;}.cls-2{fill:#fcd08a;}.cls-3{fill:#c73b40;}.cls-4{fill:#d26266;}</style></defs><title/><g data-name="Layer 25" id="Layer_25"><rect class="cls-1" height="3" width="54" x="9" y="1"/><rect class="cls-1" height="3" width="54" x="9" y="4"/><polygon class="cls-2" points="25.259 4 22.148 7 25.259 10 22.148 13 25.259 16 22.148 19 25.259 22 22.148 25 25.259 28 22.148 31 25.259 34 21.111 34 18 31 21.111 28 18 25 21.111 22 18 19 21.111 16 18 13 21.111 10 18 7 21.111 4 25.259 4"/><polygon class="cls-2" points="29.407 4 26.296 7 29.407 10 26.296 13 29.407 16 26.296 19 29.407 22 26.296 25 29.407 28 26.296 31 29.407 34 25.259 34 22.148 31 25.259 28 22.148 25 25.259 22 22.148 19 25.259 16 22.148 13 25.259 10 22.148 7 25.259 4 29.407 4"/><polygon class="cls-2" points="33.556 4 30.444 7 33.556 10 30.444 13 33.556 16 30.444 19 33.556 22 30.444 25 33.556 28 30.444 31 33.556 34 29.407 34 26.296 31 29.407 28 26.296 25 29.407 22 26.296 19 29.407 16 26.296 13 29.407 10 26.296 7 29.407 4 33.556 4"/><polygon class="cls-2" points="37.704 4 34.593 7 37.704 10 34.593 13 37.704 16 34.593 19 37.704 22 34.593 25 37.704 28 34.593 31 37.704 34 33.556 34 30.444 31 33.556 28 30.444 25 33.556 22 30.444 19 33.556 16 30.444 13 33.556 10 30.444 7 33.556 4 37.704 4"/><polygon class="cls-2" points="41.852 4 38.741 7 41.852 10 38.741 13 41.852 16 38.741 19 41.852 22 38.741 25 41.852 28 38.741 31 41.852 34 37.704 34 34.593 31 37.704 28 34.593 25 37.704 22 34.593 19 37.704 16 34.593 13 37.704 10 34.593 7 37.704 4 41.852 4"/><polygon class="cls-2" points="46 4 42.889 7 46 10 42.889 13 46 16 42.889 19 46 22 42.889 25 46 28 42.889 31 46 34 41.852 34 38.741 31 41.852 28 38.741 25 41.852 22 38.741 19 41.852 16 38.741 13 41.852 10 38.741 7 41.852 4 46 4"/><path d="M63,0H9A1,1,0,0,0,8,1V7A1,1,0,0,0,9,8h8.6l2.075,2-2.365,2.28a1,1,0,0,0,0,1.44L19.671,16l-2.365,2.28a1,1,0,0,0,0,1.44L19.671,22l-2.365,2.28a1,1,0,0,0,0,1.44L19.671,28l-.291.28a1,1,0,1,0,1.389,1.44l1.037-1a1,1,0,0,0,0-1.44L19.44,25l2.366-2.28a1,1,0,0,0,0-1.44L19.44,19l2.366-2.28a1,1,0,0,0,0-1.44L19.44,13l2.366-2.28a1,1,0,0,0,0-1.44L19.44,7l2.075-2h1.266L21.454,6.28a1,1,0,0,0,0,1.44L23.818,10l-2.364,2.28a1,1,0,0,0,0,1.44L23.818,16l-2.364,2.28a1,1,0,0,0,0,1.44L23.818,22l-2.364,2.28a1,1,0,0,0,0,1.44L23.818,28l-.29.28a1,1,0,0,0,1.389,1.44l1.036-1a1,1,0,0,0,0-1.44L23.589,25l2.364-2.28a1,1,0,0,0,0-1.44L23.589,19l2.364-2.28a1,1,0,0,0,0-1.44L23.589,13l2.364-2.28a1,1,0,0,0,0-1.44L23.589,7l2.074-2h1.266L25.6,6.28a1,1,0,0,0,0,1.44L27.967,10,25.6,12.28a1,1,0,0,0,0,1.44L27.967,16,25.6,18.28a1,1,0,0,0,0,1.44L27.967,22,25.6,24.28a1,1,0,0,0,0,1.44L27.967,28l-.291.28a1,1,0,1,0,1.388,1.44l1.038-1a1,1,0,0,0,0-1.44L27.736,25,30.1,22.72a1,1,0,0,0,0-1.44L27.736,19,30.1,16.72a1,1,0,0,0,0-1.44L27.736,13,30.1,10.72a1,1,0,0,0,0-1.44L27.736,7l2.075-2h1.267L29.75,6.28a1,1,0,0,0,0,1.44L32.115,10,29.75,12.28a1,1,0,0,0,0,1.44L32.115,16,29.75,18.28a1,1,0,0,0,0,1.44L32.115,22,29.75,24.28a1,1,0,0,0,0,1.44L32.115,28l-.291.28a1,1,0,0,0-.025,1.414.99.99,0,0,0,.331.227,1.014,1.014,0,0,0,.133.028A.966.966,0,0,0,32.51,30l.009,0a1.043,1.043,0,0,0,.232-.044,1.122,1.122,0,0,0,.131-.025,1.008,1.008,0,0,0,.331-.211l1.037-1a1,1,0,0,0,0-1.44L31.885,25l2.365-2.28a1,1,0,0,0,0-1.44L31.885,19l2.365-2.28a1,1,0,0,0,0-1.44L31.885,13l2.365-2.28a1,1,0,0,0,0-1.44L31.885,7l2.074-2h1.267L33.9,6.28a1,1,0,0,0,0,1.44L36.264,10,33.9,12.28a1,1,0,0,0,0,1.44L36.264,16,33.9,18.28a1,1,0,0,0,0,1.44L36.264,22,33.9,24.28a1,1,0,0,0,0,1.44L36.264,28l-.291.28a1,1,0,0,0,.306,1.641,1.044,1.044,0,0,0,.126.027,1.013,1.013,0,0,0,.253.05l.009,0a1.006,1.006,0,0,0,.235-.045.945.945,0,0,0,.129-.024,1.014,1.014,0,0,0,.33-.211l1.037-1a1,1,0,0,0,0-1.44L36.033,25,38.4,22.72a1,1,0,0,0,0-1.44L36.033,19,38.4,16.72a1,1,0,0,0,0-1.44L36.033,13,38.4,10.72a1,1,0,0,0,0-1.44L36.033,7l2.075-2h1.266L38.047,6.28a1,1,0,0,0,0,1.44L40.411,10l-2.364,2.28a1,1,0,0,0,0,1.44L40.411,16l-2.364,2.28a1,1,0,0,0,0,1.44L40.411,22l-2.364,2.28a1,1,0,0,0,0,1.44L40.411,28l-.291.28a1,1,0,0,0,1.389,1.44l1.037-1a1,1,0,0,0,0-1.44L40.182,25l2.364-2.28a1,1,0,0,0,0-1.44L40.182,19l2.364-2.28a1,1,0,0,0,0-1.44L40.182,13l2.364-2.28a1,1,0,0,0,0-1.44L40.182,7l2.073-2h1.267L42.194,6.28a1,1,0,0,0,0,1.44L44.56,10l-2.366,2.28a1,1,0,0,0,0,1.44L44.56,16l-2.366,2.28a1,1,0,0,0,0,1.44L44.56,22l-2.366,2.28a1,1,0,0,0,0,1.44L44.56,28l-.254.245a1,1,0,1,0,1.388,1.439l1-.964a1,1,0,0,0,0-1.44L44.329,25l2.365-2.28a1,1,0,0,0,0-1.44L44.329,19l2.365-2.28a1,1,0,0,0,0-1.44L44.329,13l2.365-2.28a1,1,0,0,0,0-1.44L44.329,7,46.4,5H62V6H45.37L44.33,7l1.04,1H63a1,1,0,0,0,1-1V1A1,1,0,0,0,63,0ZM10,5h8.633L17.6,6H10ZM46,3H10V2H62V3Z"/><path class="cls-3" d="M1.025,33a30.991,30.991,0,0,0,61.95,0Z"/><path class="cls-4" d="M59.975,33A31,31,0,0,1,30.5,62.963Q31.246,63,32,63A31,31,0,0,0,62.975,33Z"/><path d="M32,64A31.848,31.848,0,0,1,.026,33.032a1,1,0,0,1,1-1.032h61.95a1,1,0,0,1,1,1.032A31.848,31.848,0,0,1,32,64ZM2.075,34a29.991,29.991,0,0,0,59.85,0Z"/></g></svg>