<?xml version="1.0" ?><!DOCTYPE svg  PUBLIC '-//W3C//DTD SVG 1.1//EN'  'http://www.w3.org/Graphics/SVG/1.1/DTD/svg11.dtd'><svg enable-background="new 0 0 100 100" id="Lager_1" version="1.1" viewBox="0 0 100 100" xml:space="preserve" xmlns="http://www.w3.org/2000/svg" xmlns:xlink="http://www.w3.org/1999/xlink"><g><path d="M170.6,483.3h-6v-16.2h6c1.7,0,3.2,0.5,4.4,1.6c1.9,1.9,1.7,3.9,1.7,6.5c0,1,0,1.9,0,2.7   c1.9-3.2,1.4-7.4-1.3-10.2L136.5,429c-3.3-3.3-11.9-3.8-11.9,3.4V468c-0.1-0.1-0.1-0.1-0.2-0.2l-0.5-0.5v3.4h-4v12.6h-4v-12.6h-4   v-3.5h11.8L85.7,429c-3.3-3.3-11.9-3.8-11.9,3.4v34.7h10.7v3.5h-7v2.8h6v3.5h-6v6.2h-3.7v31.5c0,7.4,8.6,6.9,11.9,3.6l38.8-38.8   c0.1-0.1,0.1-0.1,0.2-0.2v35.3c0,7.4,8.6,6.9,11.9,3.6l35.2-35.2C171.4,483.3,171,483.3,170.6,483.3z M94.2,483.3l-0.7-2.4h-5   l-0.8,2.4h-4.2l5.9-16.2h3.1l5.9,16.2H94.2z M104.4,483.5c-2.5,0-4.5-0.5-6.1-2.1l2.5-2.5c0.8,0.8,2.3,1.1,3.6,1.1   c1.6,0,2.3-0.5,2.3-1.5c0-0.4-0.1-0.7-0.3-1c-0.2-0.2-0.5-0.4-1.1-0.4l-2-0.3c-1.4-0.2-2.5-0.7-3.2-1.4c-0.7-0.8-1.1-1.9-1.1-3.2   c0-3,2.2-5.1,5.9-5.1c2.3,0,4.1,0.5,5.4,1.9l-2.5,2.5c-1-1-2.4-1-3.1-1c-1.4,0-2,0.8-2,1.5c0,0.2,0.1,0.5,0.3,0.8   c0.2,0.2,0.5,0.4,1.1,0.5l2,0.3c1.5,0.2,2.5,0.7,3.2,1.3c0.9,0.8,1.2,2,1.2,3.5C110.6,481.7,107.8,483.5,104.4,483.5z M141.9,470.7   h-7v2.8h6v3.5h-6v6.2h-4v-16.2h11V470.7z M158.8,483.3h-3.2l-2.6-8l-2.6,8h-3.2l-4.4-16.2h4.2l2.1,8.5l2.6-8.5h2.8l2.6,8.5l2.1-8.5   h4.2L158.8,483.3z" fill="#06000B"/><polygon fill="#06000B" points="89.6,477.6 92.4,477.6 91,473.3  "/><path d="M172.3,471.6c-0.4-0.5-0.9-0.9-1.9-0.9h-1.7v9.1h1.7c1,0,1.5-0.4,1.9-0.9c0.3-0.5,0.4-0.9,0.4-3.6   C172.7,472.5,172.6,472.1,172.3,471.6z" fill="#06000B"/></g><g><path d="M35.7,14.9c-0.4,0-18.7,6-16.7,16.7s13.9,9.9,4.9,26.4C15,74.4,21.4,83.4,9.6,87c-11.8,3.6-4.3,9.4,4.8,6.9   s24.4-16.8,33.1-36.8S51.2,13.9,35.7,14.9z" fill="#993829"/><path d="M23.6,19.5c-2.7,1.5-7.9,5.2-7.2,10.3c0,0,2.2-4.7,5.9-5.5c0,0-1.4,6.5,1.2,8.6c0,0,0.6-8.2,1.6-8.8   c0,0,4.2-0.2,6.3,3c0,0,0.7-5-2.4-6.3c0,0,5.5-3,9.4,0.3c0,0-4.3-3.6-5.7-3.6c0,0,8.8-2.5,13.1-0.1c0,0-3.4-5.1-10.5-2.6   c0,0-8,3.6-9.8-2.4c-1.2-4.3-2-7.9-5.8-6.7s-2.4,3.2,0.2,4.6c1.7,0.9,3.5,4.3,4.4,6.5C24.8,18,24.4,19.1,23.6,19.5z" fill="#66AA5B"/></g><g><path d="M80.4,14.9c-0.4,0-18.7,6-16.7,16.7c2,10.7,13.9,9.9,4.9,26.4c-8.9,16.3-2.5,25.4-14.3,29   c-11.8,3.6-4.3,9.4,4.8,6.9s24.4-16.8,33.1-36.8S95.9,13.9,80.4,14.9z" fill="#993829"/><path d="M68.3,19.5c-2.7,1.5-7.9,5.2-7.2,10.3c0,0,2.2-4.7,5.9-5.5c0,0-1.4,6.5,1.2,8.6c0,0,0.6-8.2,1.6-8.8   c0,0,4.2-0.2,6.3,3c0,0,0.7-5-2.4-6.3c0,0,5.5-3,9.4,0.3c0,0-4.3-3.6-5.7-3.6c0,0,8.8-2.5,13.1-0.1c0,0-3.4-5.1-10.5-2.6   c0,0-8,3.6-9.8-2.4c-1.2-4.3-2-7.9-5.8-6.7C60.5,7,61.9,9,64.6,10.3c1.7,0.9,3.5,4.3,4.4,6.5C69.5,18,69.1,19.1,68.3,19.5z" fill="#66AA5B"/></g></svg>