<?xml version="1.0" ?><!DOCTYPE svg  PUBLIC '-//W3C//DTD SVG 1.1//EN'  'http://www.w3.org/Graphics/SVG/1.1/DTD/svg11.dtd'><svg height="512px" style="enable-background:new 0 0 512 512;" version="1.1" viewBox="0 0 512 512" width="512px" xml:space="preserve" xmlns="http://www.w3.org/2000/svg" xmlns:xlink="http://www.w3.org/1999/xlink"><g id="_x34_87_x2C__world_x2C__office_x2C__globe_x2C__web"><g><polygon points="366.48,402.12 366.48,462.12 156.49,462.12 156.49,402.12 256.49,402.12 296.48,402.12       " style="fill:#9E6133;"/><polygon points="167.821,413.62 267.82,413.62 307.811,413.62 366.48,413.62 366.48,402.12 296.48,402.12     256.49,402.12 156.49,402.12 156.49,462.12 167.821,462.12   " style="fill:#89532F;"/><path d="M220.687,377.025c-43.586,0-87.214-15.685-121.586-47.204l-17.439,18.007c-1.922,1.983-5.087,2.034-7.07,0.113    s-2.034-5.087-0.113-7.07l20.87-21.55c0.923-0.952,2.186-1.5,3.512-1.521c1.327-0.049,2.606,0.486,3.559,1.408    c67.323,65.219,175.162,63.515,240.391-3.799c31.596-32.615,48.602-75.582,47.883-120.985    c-0.719-45.403-19.076-87.809-51.69-119.404c-0.953-0.923-1.5-2.186-1.521-3.512c-0.021-1.326,0.485-2.606,1.408-3.558    L359.77,46.4c1.922-1.983,5.088-2.032,7.07-0.111c1.983,1.921,2.033,5.087,0.111,7.07l-17.447,18.008    c32.317,33.05,50.453,76.496,51.188,122.9c0.761,48.073-17.245,93.568-50.7,128.101    C314.742,358.745,267.739,377.025,220.687,377.025z"/><path d="M256.49,407.12c-2.761,0-5-2.238-5-5V369.06c0-2.762,2.239-5,5-5c2.762,0,5,2.238,5,5v33.061    C261.49,404.882,259.252,407.12,256.49,407.12z"/><path d="M296.48,407.12c-2.762,0-5-2.238-5-5v-40c0-2.762,2.238-5,5-5s5,2.238,5,5v40    C301.48,404.882,299.242,407.12,296.48,407.12z"/><path d="M366.48,467.12c-2.762,0-5-2.238-5-5v-55H161.49v55c0,2.762-2.239,5-5,5s-5-2.238-5-5v-60c0-2.762,2.239-5,5-5h209.99    c2.762,0,5,2.238,5,5v60C371.48,464.882,369.242,467.12,366.48,467.12z"/><path d="M436.48,467.12H76.49c-2.761,0-5-2.238-5-5s2.239-5,5-5h359.99c2.762,0,5,2.238,5,5S439.242,467.12,436.48,467.12z"/><path d="M186.963,263.922l-29.041,52.101c-19.689-10.978-25.912-40.713-19.28-77.152    c15.388,7.011,31.278,15.189,47.273,24.446C186.262,263.517,186.617,263.722,186.963,263.922z" style="fill:#5EB2E5;"/><path d="M186.963,263.922l-29.041,52.101c-19.689-10.978-25.912-40.713-19.28-77.152    c15.388,7.011,31.278,15.189,47.273,24.446C186.262,263.517,186.617,263.722,186.963,263.922z" style="fill:#529FC6;"/><path d="M183.444,270.235c-12.958-7.193-25.801-13.677-38.309-19.375    c-3.983,21.885-3.323,41.346,2.101,55.783c-0.13-0.171-0.253-0.35-0.381-0.523c3.607,9.582,9.311,16.951,17.164,21.329    l29.041-52.1c-0.346-0.2-0.701-0.406-1.047-0.606c-2.812-1.627-5.619-3.209-8.423-4.77L183.444,270.235z" style="fill:#5EB2E5;"/><path d="M232.159,293.196c-27.028,23.826-54.902,33.6-74.236,22.826l29.041-52.101    C203.146,273.333,218.306,283.192,232.159,293.196z" style="fill:#70D3F3;"/><path d="M225.704,288.62c-23.337,19.494-47.005,28.354-65.002,22.417l-2.779,4.985    c19.334,10.773,47.208,1,74.236-22.826C230.041,291.667,227.882,290.143,225.704,288.62z" style="fill:#54BBD3;"/><path d="M279.088,332.311c-39.536,16.393-85.909,15.207-126.198-7.253    c-0.697-0.392-1.386-0.779-2.069-1.175c-40.542-23.46-65.547-63.685-71.15-106.972c18.099,5.043,38.073,12.432,58.972,21.959    c-6.632,36.439-0.41,66.174,19.28,77.152c19.334,10.773,47.208,1,74.236-22.826C250.205,306.215,266.054,319.477,279.088,332.311z    " style="fill:#5EB2E5;"/><g><g><g><path d="M232.159,293.196c-1.815,1.6-3.634,3.132-5.455,4.604c13.166,10.129,24.939,20.313,35.022,30.24       c-25.485,10.565-53.808,13.815-81.513,8.785c33.03,10.362,68.033,8.274,98.875-4.515       C266.054,319.477,250.205,306.215,232.159,293.196z" style="fill:#529FC6;"/></g></g></g><g><g><g><path d="M91.127,229.318c14.435,4.022,30.065,9.541,46.404,16.442c0.318-2.268,0.688-4.564,1.111-6.89       c-20.898-9.527-40.873-16.917-58.972-21.959c4.17,32.22,19.097,62.736,43.171,85.911       C105.471,281.646,94.59,256.069,91.127,229.318z" style="fill:#529FC6;"/></g></g></g><path d="M350.137,268.992c-16.528,29.66-41.934,51.261-71.049,63.318    c-13.034-12.834-28.883-26.096-46.929-39.114c17.6-15.5,34.829-36.967,49.113-62.588c0.005-0.008,0.015-0.025,0.021-0.035    L350.137,268.992z" style="fill:#70D3F3;"/><path d="M350.137,268.992l-68.845-38.419c-0.006,0.009-0.016,0.026-0.021,0.035    c-1.53,2.746-3.102,5.434-4.697,8.083l60.346,33.676c-14.354,25.758-35.405,45.433-59.764,58.063    c0.648,0.628,1.296,1.256,1.932,1.882C308.203,320.253,333.608,298.652,350.137,268.992z" style="fill:#54BBD3;"/><path d="M281.292,230.573c-0.006,0.009-0.016,0.026-0.021,0.035    c-14.284,25.622-31.513,47.088-49.113,62.588c-13.853-10.004-29.013-19.863-45.196-29.274l36.553-65.581L281.292,230.573z" style="fill:#5EB2E5;"/><path d="M281.271,230.608c0.005-0.008,0.015-0.025,0.021-0.035l-57.776-32.232l-3.98,7.142l50.237,28.026    c-0.006,0.009-0.016,0.026-0.021,0.035c-12.439,22.313-27.113,41.471-42.32,56.286c1.59,1.121,3.169,2.242,4.727,3.367    C249.758,277.696,266.987,256.229,281.271,230.608z" style="fill:#529FC6;"/><path d="M223.516,198.341l-36.553,65.581c-0.346-0.2-0.701-0.405-1.047-0.605    c-15.995-9.256-31.886-17.435-47.273-24.446c4.117-22.607,13.172-47.8,27.048-72.675c0.015-0.026,0.035-0.061,0.05-0.087    L223.516,198.341z" style="fill:#70D3F3;"/><path d="M168.664,177.449c0.015-0.026,0.035-0.061,0.05-0.087l50.723,28.297l4.079-7.318l-57.775-32.232    c-0.015,0.026-0.035,0.061-0.05,0.087c-13.875,24.875-22.931,50.067-27.048,72.675c1.61,0.733,3.229,1.487,4.849,2.247    C148.192,220.924,156.605,199.068,168.664,177.449z" style="fill:#54BBD3;"/><path d="M138.643,238.871c-20.898-9.527-40.873-16.917-58.972-21.959c-3.858-29.73,1.436-60.9,17.154-89.1    c0.025-0.043,0.045-0.078,0.07-0.121l68.846,38.418c-0.015,0.026-0.035,0.061-0.05,0.087    C151.815,191.071,142.76,216.263,138.643,238.871z" style="fill:#5EB2E5;"/><path d="M100.346,141.692c0.025-0.043,0.045-0.078,0.07-0.121l60.424,33.719    c1.546-3.032,3.161-6.065,4.85-9.094c0.015-0.026,0.035-0.061,0.05-0.087L96.895,127.69c-0.025,0.043-0.045,0.078-0.07,0.121    c-15.718,28.2-21.012,59.37-17.154,89.1c0.802,0.224,1.613,0.458,2.423,0.69C81.122,191.961,86.939,165.747,100.346,141.692z" style="fill:#529FC6;"/><path d="M158.504,68.764c13.255,13.61,29.8,27.806,48.892,41.753    c-14.97,14.709-29.405,33.624-41.655,55.591L96.895,127.69C111.628,101.313,133.373,81.326,158.504,68.764z" style="fill:#70D3F3;"/><path d="M156.806,81.242c11.844,12.159,26.318,24.786,42.882,37.286c2.548-2.789,5.119-5.467,7.708-8.01    c-19.092-13.948-35.636-28.143-48.892-41.753c-25.131,12.562-46.876,32.549-61.609,58.926l4.434,2.475    C115.676,108.701,134.958,92.162,156.806,81.242z" style="fill:#54BBD3;"/><path d="M350.137,268.992l-68.845-38.419c11.853-21.262,20.19-42.757,24.923-62.675    c22.149,9.941,43.221,17.432,62.041,22.245C369.797,216.709,364.053,244.025,350.137,268.992z" style="fill:#5EB2E5;"/><path d="M358.669,196.728c1.353,23.308-2.908,47.194-13.371,69.563l4.839,2.701    c13.916-24.967,19.66-52.283,18.119-78.849c-18.82-4.813-39.892-12.304-62.041-22.245c-0.758,3.184-1.615,6.411-2.556,9.669    C323.234,185.981,341.852,192.426,358.669,196.728z" style="fill:#529FC6;"/><path d="M281.292,230.573l-57.776-32.232l31.612-56.724c0.303,0.175,0.605,0.351,0.909,0.526    c17.008,9.842,33.88,18.461,50.178,25.756C301.482,187.816,293.145,209.311,281.292,230.573z" style="fill:#70D3F3;"/><path d="M296.18,172.682c-4.141,17.424-11.04,36.057-20.639,54.684l5.751,3.208    c11.853-21.262,20.19-42.757,24.923-62.675c-16.298-7.294-33.17-15.914-50.178-25.756c-0.303-0.175-0.606-0.351-0.909-0.526    l-4.447,7.979C266.102,158.328,281.378,166.057,296.18,172.682z" style="fill:#54BBD3;"/><path d="M255.128,141.617l-31.612,56.724l-57.775-32.232c12.25-21.968,26.685-40.882,41.655-55.591    C221.936,121.15,237.959,131.635,255.128,141.617z" style="fill:#5EB2E5;"/><path d="M208.473,122.983c12.82,9.375,26.797,18.635,41.693,27.537l4.962-8.904    c-17.169-9.982-33.192-20.467-47.732-31.099c-14.97,14.709-29.405,33.624-41.655,55.591l6.298,3.514    C183.085,151.449,195.578,135.653,208.473,122.983z" style="fill:#529FC6;"/><path d="M289.039,80.78l-33.911,60.836c-17.169-9.982-33.192-20.467-47.732-31.099    C236.634,81.754,267.933,69.017,289.039,80.78z" style="fill:#70D3F3;"/><path d="M285.058,87.924l3.981-7.144c-21.106-11.763-52.405,0.974-81.643,29.737    c2.196,1.605,4.436,3.206,6.698,4.803C239.328,92.269,265.552,81.363,285.058,87.924z" style="fill:#54BBD3;"/><path d="M289.039,80.78c21.467,11.96,26.912,46.214,17.176,87.118    c-16.298-7.294-33.17-15.914-50.178-25.756c-0.303-0.175-0.606-0.351-0.909-0.526L289.039,80.78z" style="fill:#5EB2E5;"/><path d="M299.943,165.039c2.1,0.973,4.19,1.928,6.271,2.859c9.736-40.904,4.291-75.158-17.176-87.118    l-3.093,5.548C302.862,99.658,307.334,129.478,299.943,165.039z" style="fill:#529FC6;"/><path d="M294.071,71.746c44.981,25.071,71.415,70.535,74.185,118.398    c-18.82-4.813-39.892-12.304-62.041-22.245c9.736-40.904,4.291-75.158-17.176-87.118L294.071,71.746z" style="fill:#70D3F3;"/><path d="M358.628,187.5c3.267,0.954,6.481,1.839,9.628,2.644c-2.77-47.863-29.203-93.327-74.185-118.398    l-3.836,6.888C330.053,103.038,354.154,143.919,358.628,187.5z" style="fill:#54BBD3;"/><path d="M294.071,71.746l-5.032,9.035c-21.106-11.763-52.405,0.974-81.643,29.737    c-19.092-13.948-35.636-28.143-48.892-41.753C199.931,48.048,250.558,47.491,294.071,71.746z" style="fill:#5EB2E5;"/><path d="M289.492,79.968l4.579-8.222c-43.513-24.255-94.14-23.698-135.567-2.981    c2.276,2.337,4.657,4.693,7.124,7.061C204.196,59.181,249.559,59.398,289.492,79.968z" style="fill:#529FC6;"/><path d="M154.957,320.088c-20.496-11.86-28.433-42.557-21.233-82.113c4.375-24.026,13.919-49.688,27.6-74.215l0.09-0.156    c12.022-21.56,26.725-41.174,42.479-56.654c32.24-31.716,64.981-43.133,87.582-30.538c0.18,0.101,0.36,0.203,0.54,0.307    c22.589,13.072,29.716,47.59,19.064,92.337c-4.972,20.923-13.762,43.039-25.42,63.951c-0.012,0.023-0.046,0.082-0.059,0.104    c-14.089,25.271-31.439,47.369-50.137,63.836c-30.038,26.48-59.188,35.024-79.974,23.441L154.957,320.088z M287.005,85.375    l-0.399-0.227c-18.228-10.159-47.234,0.928-75.703,28.933c-15.086,14.823-29.192,33.655-40.795,54.463l-0.089,0.156    c-13.113,23.511-22.275,48.108-26.457,71.066c-6.41,35.221-0.278,62.012,16.404,71.666l0.391,0.224    c16.613,9.255,42.218,0.953,68.496-22.211c17.855-15.726,34.472-36.913,48.052-61.272c0.013-0.023,0.047-0.082,0.06-0.104    c11.177-20.051,19.623-41.281,24.387-61.327C310.778,127.13,305.282,95.952,287.005,85.375z"/><path d="M94.389,132.018c-2.358-1.365-3.193-4.375-1.86-6.763c1.345-2.411,4.391-3.275,6.802-1.93l253.242,141.301    c0.023,0.013,0.047,0.026,0.069,0.04c2.358,1.364,3.193,4.375,1.86,6.763c-1.347,2.412-4.392,3.275-6.802,1.93L94.458,132.057    C94.436,132.044,94.412,132.031,94.389,132.018z"/><path d="M77.17,221.241c-1.301-0.752-2.249-2.081-2.457-3.686c-4.155-32.02,1.98-63.895,17.745-92.178l0.11-0.19    c14.714-26.346,36.755-47.425,63.702-60.896c2.47-1.234,5.473-0.233,6.708,2.238c1.234,2.47,0.233,5.473-2.237,6.708    c-25.143,12.568-45.71,32.241-59.479,56.892l-0.107,0.187c-14.673,26.327-20.4,56.072-16.524,85.952    c0.356,2.738-1.576,5.246-4.314,5.602C79.181,222.017,78.088,221.772,77.17,221.241z"/><path d="M276.58,336.637c-0.917-0.531-1.674-1.357-2.111-2.412c-1.057-2.552,0.155-5.477,2.706-6.533    c29.365-12.162,53.085-33.301,68.595-61.133c12.982-23.295,19.032-49.618,17.494-76.125c-0.16-2.756,1.945-5.122,4.702-5.282    c2.758-0.159,5.121,1.946,5.281,4.702c1.648,28.409-4.832,56.616-18.743,81.572c-16.617,29.82-42.034,52.472-73.502,65.505    C279.506,337.55,277.882,337.39,276.58,336.637z"/><path d="M253.533,146.47l-0.909-0.526c-17.005-9.885-33.211-20.446-48.179-31.391c-19.145-13.988-35.807-28.221-49.522-42.301    c-1.114-1.143-1.615-2.749-1.349-4.322c0.266-1.572,1.267-2.925,2.693-3.638c44.461-22.234,96.887-21.08,140.238,3.086    c45.042,25.098,73.767,71.063,76.741,122.476c0.092,1.592-0.582,3.134-1.813,4.148c-1.231,1.014-2.872,1.38-4.418,0.984    c-19.521-4.991-40.665-12.571-62.85-22.527C287.41,164.96,270.372,156.215,253.533,146.47z M167.067,70.266    c12.324,12.054,26.852,24.213,43.278,36.215c14.688,10.741,30.601,21.107,47.296,30.814l0.899,0.521    c16.543,9.573,33.269,18.159,49.716,25.521c19.103,8.572,37.376,15.331,54.433,20.135c-4.768-44.395-30.206-83.741-69.05-106.219    c-0.665-0.385-1.329-0.762-2.003-1.138C253.212,54.694,207.151,52.644,167.067,70.266z"/><path d="M148.316,328.211c-40.725-23.567-67.552-63.9-73.604-110.658c-0.216-1.663,0.417-3.323,1.685-4.421    c1.268-1.098,3.001-1.488,4.616-1.038c18.689,5.208,38.776,12.686,59.704,22.227c15.835,7.214,31.886,15.514,47.703,24.667    l1.047,0.606c16.024,9.319,31.37,19.259,45.619,29.548c18.088,13.049,34.073,26.375,47.511,39.605    c1.194,1.177,1.72,2.873,1.399,4.519s-1.444,3.021-2.993,3.663c-42.672,17.692-90.255,14.956-130.547-7.505    C149.713,329.008,149.012,328.613,148.316,328.211z M85.829,223.919c7.445,40.378,31.727,74.937,67.496,95.636    c0.661,0.382,1.327,0.756,2,1.136c35.344,19.702,76.705,23.141,114.62,9.771c-11.844-11.095-25.507-22.243-40.711-33.212    c-13.984-10.099-29.052-19.857-44.784-29.007l-1.038-0.601c-15.539-8.991-31.299-17.142-46.842-24.223    C118.896,235.363,101.865,228.819,85.829,223.919z"/><path d="M155.417,320.35c-2.357-1.364-3.193-4.373-1.861-6.762L289.703,69.313c1.343-2.411,4.388-3.278,6.801-1.935    c2.449,1.355,3.278,4.389,1.936,6.801L162.29,318.457c-1.344,2.412-4.389,3.277-6.802,1.933    C155.464,320.377,155.44,320.363,155.417,320.35z"/></g></g><g id="Layer_1"/></svg>