<?xml version="1.0" ?><!DOCTYPE svg  PUBLIC '-//W3C//DTD SVG 1.1//EN'  'http://www.w3.org/Graphics/SVG/1.1/DTD/svg11.dtd'><svg height="512px" style="enable-background:new 0 0 512 512;" version="1.1" viewBox="0 0 512 512" width="512px" xml:space="preserve" xmlns="http://www.w3.org/2000/svg" xmlns:xlink="http://www.w3.org/1999/xlink"><g id="_x36_16_x2C__notebook_x2C___love_x2C__heart_x2C__wedding"><g><path d="M428.16,97.885v316.24c0,15.26-12.37,27.63-27.63,27.63H147.72c-15.26,0-27.64-12.37-27.64-27.63    v-8.609h22.65c7.51,0,13.6-6.091,13.6-13.591c0-7.51-6.09-13.59-13.6-13.59h-22.65v-27.189h22.65c7.51,0,13.6-6.08,13.6-13.59    c0-7.511-6.09-13.591-13.6-13.591h-22.65v-27.18h22.65c7.51,0,13.6-6.09,13.6-13.6c0-7.5-6.09-13.591-13.6-13.591h-22.65v-27.18    h22.65c7.51,0,13.6-6.09,13.6-13.59c0-7.51-6.09-13.6-13.6-13.6h-22.65v-27.18h22.65c7.51,0,13.6-6.09,13.6-13.59    c0-7.51-6.09-13.59-13.6-13.59h-22.65v-27.19h22.65c7.51,0,13.6-6.08,13.6-13.59c0-7.51-6.09-13.59-13.6-13.59h-22.65v-8.61    c0-15.26,12.38-27.64,27.64-27.64h252.81C415.79,70.245,428.16,82.625,428.16,97.885z" style="fill:#FFECB2;"/><g><path d="M128.747,146.591h22.65c7.51,0,13.6-6.08,13.6-13.59c0-5.772-3.604-10.688-8.68-12.659     c-0.138,7.39-6.164,13.333-13.587,13.333h-22.65v27.19h8.667V146.591z" style="fill:#E5D098;"/><path d="M128.747,255.331h22.65c7.51,0,13.6-6.09,13.6-13.59c0-5.772-3.604-10.693-8.679-12.667     c-0.134,7.385-6.161,13.342-13.587,13.342h-22.65v27.18h8.667V255.331z" style="fill:#E5D098;"/><path d="M156.387,83.161h252.811c6.73,0,12.896,2.411,17.688,6.412     c-3.528-11.2-13.992-19.327-26.355-19.327H147.72c-15.26,0-27.64,12.38-27.64,27.64v8.61h9.002     C131.152,93.279,142.591,83.161,156.387,83.161z" style="fill:#E5D098;"/><path d="M128.747,200.961h22.65c7.51,0,13.6-6.09,13.6-13.59c0-5.772-3.604-10.688-8.68-12.659     c-0.138,7.38-6.164,13.333-13.587,13.333h-22.65v27.18h8.667V200.961z" style="fill:#E5D098;"/><path d="M128.747,427.04v-8.609h22.65c7.51,0,13.6-6.09,13.6-13.59c0-5.772-3.604-10.688-8.68-12.659     c-0.139,7.381-6.164,13.334-13.587,13.334h-22.65v8.609c0,8.525,3.866,16.146,9.938,21.214     C129.193,432.72,128.747,429.932,128.747,427.04z" style="fill:#E5D098;"/><path d="M128.747,309.7h22.65c7.51,0,13.6-6.09,13.6-13.6c0-5.765-3.604-10.685-8.68-12.657     c-0.139,7.39-6.164,13.342-13.587,13.342h-22.65v27.18h8.667V309.7z" style="fill:#E5D098;"/><path d="M128.747,364.062h22.65c7.51,0,13.6-6.08,13.6-13.59c0-5.773-3.604-10.689-8.679-12.66     c-0.138,7.39-6.164,13.334-13.587,13.334h-22.65v27.189h8.667V364.062z" style="fill:#E5D098;"/></g><path d="M156.33,391.925c0,7.5-6.09,13.591-13.6,13.591h-22.65H97.43c-7.51,0-13.59-6.091-13.59-13.591    c0-7.51,6.08-13.59,13.59-13.59h22.65h22.65C150.24,378.335,156.33,384.415,156.33,391.925z M142.73,323.965h-22.65H97.43    c-7.51,0-13.59,6.08-13.59,13.591c0,7.51,6.08,13.59,13.59,13.59h22.65h22.65c7.51,0,13.6-6.08,13.6-13.59    C156.33,330.045,150.24,323.965,142.73,323.965z M142.73,269.595h-22.65H97.43c-7.51,0-13.59,6.091-13.59,13.591    c0,7.51,6.08,13.6,13.59,13.6h22.65h22.65c7.51,0,13.6-6.09,13.6-13.6C156.33,275.686,150.24,269.595,142.73,269.595z     M142.73,215.225h-22.65H97.43c-7.51,0-13.59,6.09-13.59,13.6c0,7.5,6.08,13.59,13.59,13.59h22.65h22.65    c7.51,0,13.6-6.09,13.6-13.59C156.33,221.315,150.24,215.225,142.73,215.225z M142.73,160.865h-22.65H97.43    c-7.51,0-13.59,6.08-13.59,13.59c0,7.5,6.08,13.59,13.59,13.59h22.65h22.65c7.51,0,13.6-6.09,13.6-13.59    C156.33,166.945,150.24,160.865,142.73,160.865z M97.43,133.675h22.65h22.65c7.51,0,13.6-6.08,13.6-13.59    c0-7.51-6.09-13.59-13.6-13.59h-22.65H97.43c-7.51,0-13.59,6.08-13.59,13.59C83.84,127.595,89.92,133.675,97.43,133.675z" style="fill:#415A6B;"/><g><path d="M99.763,171.198h22.65h22.65c4.552,0,8.571,2.241,11.04,5.673c0.141-0.786,0.227-1.59,0.227-2.416     c0-7.51-6.09-13.59-13.6-13.59h-22.65H97.43c-7.51,0-13.59,6.08-13.59,13.59c0,2.956,0.955,5.685,2.56,7.917     C87.54,176.018,93.079,171.198,99.763,171.198z" style="fill:#304754;"/><path d="M99.763,225.558h22.65h22.65c4.552,0,8.572,2.246,11.041,5.68     c0.141-0.785,0.227-1.588,0.227-2.413c0-7.51-6.09-13.6-13.6-13.6h-22.65H97.43c-7.51,0-13.59,6.09-13.59,13.6     c0,2.956,0.955,5.685,2.56,7.917C87.54,230.386,93.079,225.558,99.763,225.558z" style="fill:#304754;"/><path d="M99.763,116.828h22.65h22.65c4.552,0,8.571,2.242,11.04,5.673c0.141-0.786,0.227-1.59,0.227-2.417     c0-7.51-6.09-13.59-13.6-13.59h-22.65H97.43c-7.51,0-13.59,6.08-13.59,13.59c0,2.96,0.955,5.689,2.559,7.92     C87.538,121.65,93.078,116.828,99.763,116.828z" style="fill:#304754;"/><path d="M99.763,388.668h22.65h22.65c4.552,0,8.571,2.241,11.04,5.673c0.141-0.785,0.227-1.59,0.227-2.416     c0-7.51-6.09-13.59-13.6-13.59h-22.65H97.43c-7.51,0-13.59,6.08-13.59,13.59c0,2.956,0.955,5.686,2.56,7.917     C87.54,393.488,93.079,388.668,99.763,388.668z" style="fill:#304754;"/><path d="M99.763,334.298h22.65h22.65c4.552,0,8.572,2.241,11.041,5.674     c0.141-0.785,0.227-1.59,0.227-2.416c0-7.511-6.09-13.591-13.6-13.591h-22.65H97.43c-7.51,0-13.59,6.08-13.59,13.591     c0,2.96,0.955,5.689,2.559,7.92C87.538,339.12,93.078,334.298,99.763,334.298z" style="fill:#304754;"/><path d="M99.763,279.928h22.65h22.65c4.552,0,8.571,2.245,11.04,5.678c0.142-0.787,0.228-1.593,0.228-2.42     c0-7.5-6.09-13.591-13.6-13.591h-22.65H97.43c-7.51,0-13.59,6.091-13.59,13.591c0,2.96,0.955,5.69,2.559,7.923     C87.538,284.759,93.078,279.928,99.763,279.928z" style="fill:#304754;"/></g><polygon points="391.92,142.735 391.92,197.105 192.57,197.105 192.57,106.495 391.92,106.495   " style="fill:#FFFFFF;"/><polygon points="202.82,116.995 391.92,116.995 391.92,106.495 192.57,106.495 192.57,197.105     202.82,197.105   " style="fill:#EAE8E8;"/><path d="M312.61,233.355c13.779,0,24.939,11.37,24.939,25.38c0,25.39-24.939,39.84-49.85,65.229    c-24.91-25.39-49.82-39.84-49.82-65.229c0-14.01,11.16-25.38,24.91-25.38c12.45,0,18.68,6.34,24.91,19.04    C293.93,239.695,300.16,233.355,312.61,233.355z" style="fill:#EF3E5C;"/><g><path d="M253.213,263.519c0-13.839,10.891-25.094,24.408-25.367c-3.901-3.197-8.582-4.796-14.831-4.796     c-13.75,0-24.91,11.37-24.91,25.38c0,25.39,24.91,39.84,49.82,65.229c1.719-1.751,3.436-3.446,5.146-5.101     C271.759,299.192,253.213,285.425,253.213,263.519z" style="fill:#D32F53;"/></g><path d="M391.92,365.205H192.57c-2.761,0-5-2.238-5-5s2.239-5,5-5h199.35c2.762,0,5,2.238,5,5    S394.682,365.205,391.92,365.205z" style="fill:#EF3E5C;"/><path d="M391.92,401.455H192.57c-2.761,0-5-2.238-5-5s2.239-5,5-5h199.35c2.762,0,5,2.238,5,5    S394.682,401.455,391.92,401.455z" style="fill:#EF3E5C;"/><path d="M342.55,147.735H197.57c-2.761,0-5-2.239-5-5s2.239-5,5-5h144.98c2.762,0,5,2.239,5,5    S345.312,147.735,342.55,147.735z" style="fill:#EAE8E8;"/></g></g><g id="Layer_1"/></svg>