<?xml version="1.0" encoding="UTF-8" standalone="no"?>
<svg
   xmlns:dc="http://purl.org/dc/elements/1.1/"
   xmlns:cc="http://creativecommons.org/ns#"
   xmlns:rdf="http://www.w3.org/1999/02/22-rdf-syntax-ns#"
   xmlns:svg="http://www.w3.org/2000/svg"
   xmlns="http://www.w3.org/2000/svg"
   xmlns:sodipodi="http://sodipodi.sourceforge.net/DTD/sodipodi-0.dtd"
   xmlns:inkscape="http://www.inkscape.org/namespaces/inkscape"
   width="210mm"
   height="210mm"
   viewBox="0 0 210 210"
   version="1.1"
   id="svg116"
   inkscape:version="1.0.2 (e86c8708, 2021-01-15)"
   sodipodi:docname="Zeichnung_small.svg">
  <defs
     id="defs110">
    <clipPath
       clipPathUnits="userSpaceOnUse"
       id="clipPath52">
      <rect
         style="fill:#0000ff;fill-rule:evenodd"
         id="rect54"
         width="410.2966"
         height="414.4762"
         x="51.548298"
         y="64.783676"
         ry="0" />
    </clipPath>
    <clipPath
       clipPathUnits="userSpaceOnUse"
       id="clipPath56">
      <rect
         style="fill:#0000ff;fill-rule:evenodd"
         id="rect58"
         width="410.2966"
         height="414.4762"
         x="51.548298"
         y="64.783676"
         ry="0" />
    </clipPath>
  </defs>
  <sodipodi:namedview
     id="base"
     pagecolor="#ffffff"
     bordercolor="#666666"
     borderopacity="1.0"
     inkscape:pageopacity="0.0"
     inkscape:pageshadow="2"
     inkscape:zoom="0.35"
     inkscape:cx="400"
     inkscape:cy="560"
     inkscape:document-units="mm"
     inkscape:current-layer="layer1"
     inkscape:document-rotation="0"
     showgrid="false"
     inkscape:window-width="1248"
     inkscape:window-height="943"
     inkscape:window-x="0"
     inkscape:window-y="23"
     inkscape:window-maximized="0" />
  <metadata
     id="metadata113">
    <rdf:RDF>
      <cc:Work
         rdf:about="">
        <dc:format>image/svg+xml</dc:format>
        <dc:type
           rdf:resource="http://purl.org/dc/dcmitype/StillImage" />
        <dc:title></dc:title>
      </cc:Work>
    </rdf:RDF>
  </metadata>
  <g
     inkscape:label="Ebene 1"
     inkscape:groupmode="layer"
     id="layer1">
    <g
       id="_x36_16_x2C__notebook_x2C___love_x2C__heart_x2C__wedding"
       clip-path="url(#clipPath56)"
       transform="matrix(0.55877948,0,0,0.51282952,-40.238023,-25.450767)">
      <g
         id="g158">
        <path
           d="m 428.16,97.885 v 316.24 c 0,15.26 -12.37,27.63 -27.63,27.63 H 147.72 c -15.26,0 -27.64,-12.37 -27.64,-27.63 v -8.609 h 22.65 c 7.51,0 13.6,-6.091 13.6,-13.591 0,-7.51 -6.09,-13.59 -13.6,-13.59 h -22.65 v -27.189 h 22.65 c 7.51,0 13.6,-6.08 13.6,-13.59 0,-7.511 -6.09,-13.591 -13.6,-13.591 h -22.65 v -27.18 h 22.65 c 7.51,0 13.6,-6.09 13.6,-13.6 0,-7.5 -6.09,-13.591 -13.6,-13.591 h -22.65 v -27.18 h 22.65 c 7.51,0 13.6,-6.09 13.6,-13.59 0,-7.51 -6.09,-13.6 -13.6,-13.6 h -22.65 v -27.18 h 22.65 c 7.51,0 13.6,-6.09 13.6,-13.59 0,-7.51 -6.09,-13.59 -13.6,-13.59 h -22.65 v -27.19 h 22.65 c 7.51,0 13.6,-6.08 13.6,-13.59 0,-7.51 -6.09,-13.59 -13.6,-13.59 h -22.65 v -8.61 c 0,-15.26 12.38,-27.64 27.64,-27.64 h 252.81 c 15.26,0.001 27.63,12.381 27.63,27.641 z"
           style="fill:#ffecb2"
           id="path108" />
        <g
           id="g124">
          <path
             d="m 128.747,146.591 h 22.65 c 7.51,0 13.6,-6.08 13.6,-13.59 0,-5.772 -3.604,-10.688 -8.68,-12.659 -0.138,7.39 -6.164,13.333 -13.587,13.333 h -22.65 v 27.19 h 8.667 z"
             style="fill:#e5d098"
             id="path110" />
          <path
             d="m 128.747,255.331 h 22.65 c 7.51,0 13.6,-6.09 13.6,-13.59 0,-5.772 -3.604,-10.693 -8.679,-12.667 -0.134,7.385 -6.161,13.342 -13.587,13.342 h -22.65 v 27.18 h 8.667 v -14.265 z"
             style="fill:#e5d098"
             id="path112" />
          <path
             d="m 156.387,83.161 h 252.811 c 6.73,0 12.896,2.411 17.688,6.412 -3.528,-11.2 -13.992,-19.327 -26.355,-19.327 H 147.72 c -15.26,0 -27.64,12.38 -27.64,27.64 v 8.61 h 9.002 c 2.07,-13.217 13.509,-23.335 27.305,-23.335 z"
             style="fill:#e5d098"
             id="path114" />
          <path
             d="m 128.747,200.961 h 22.65 c 7.51,0 13.6,-6.09 13.6,-13.59 0,-5.772 -3.604,-10.688 -8.68,-12.659 -0.138,7.38 -6.164,13.333 -13.587,13.333 h -22.65 v 27.18 h 8.667 z"
             style="fill:#e5d098"
             id="path116" />
          <path
             d="m 128.747,427.04 v -8.609 h 22.65 c 7.51,0 13.6,-6.09 13.6,-13.59 0,-5.772 -3.604,-10.688 -8.68,-12.659 -0.139,7.381 -6.164,13.334 -13.587,13.334 h -22.65 v 8.609 c 0,8.525 3.866,16.146 9.938,21.214 -0.825,-2.619 -1.271,-5.407 -1.271,-8.299 z"
             style="fill:#e5d098"
             id="path118" />
          <path
             d="m 128.747,309.7 h 22.65 c 7.51,0 13.6,-6.09 13.6,-13.6 0,-5.765 -3.604,-10.685 -8.68,-12.657 -0.139,7.39 -6.164,13.342 -13.587,13.342 h -22.65 v 27.18 h 8.667 z"
             style="fill:#e5d098"
             id="path120" />
          <path
             d="m 128.747,364.062 h 22.65 c 7.51,0 13.6,-6.08 13.6,-13.59 0,-5.773 -3.604,-10.689 -8.679,-12.66 -0.138,7.39 -6.164,13.334 -13.587,13.334 h -22.65 v 27.189 h 8.667 v -14.273 z"
             style="fill:#e5d098"
             id="path122" />
        </g>
        <path
           d="m 156.33,391.925 c 0,7.5 -6.09,13.591 -13.6,13.591 H 120.08 97.43 c -7.51,0 -13.59,-6.091 -13.59,-13.591 0,-7.51 6.08,-13.59 13.59,-13.59 h 22.65 22.65 c 7.51,0 13.6,6.08 13.6,13.59 z m -13.6,-67.96 H 120.08 97.43 c -7.51,0 -13.59,6.08 -13.59,13.591 0,7.51 6.08,13.59 13.59,13.59 h 22.65 22.65 c 7.51,0 13.6,-6.08 13.6,-13.59 0,-7.511 -6.09,-13.591 -13.6,-13.591 z m 0,-54.37 H 120.08 97.43 c -7.51,0 -13.59,6.091 -13.59,13.591 0,7.51 6.08,13.6 13.59,13.6 h 22.65 22.65 c 7.51,0 13.6,-6.09 13.6,-13.6 0,-7.5 -6.09,-13.591 -13.6,-13.591 z m 0,-54.37 H 120.08 97.43 c -7.51,0 -13.59,6.09 -13.59,13.6 0,7.5 6.08,13.59 13.59,13.59 h 22.65 22.65 c 7.51,0 13.6,-6.09 13.6,-13.59 0,-7.51 -6.09,-13.6 -13.6,-13.6 z m 0,-54.36 H 120.08 97.43 c -7.51,0 -13.59,6.08 -13.59,13.59 0,7.5 6.08,13.59 13.59,13.59 h 22.65 22.65 c 7.51,0 13.6,-6.09 13.6,-13.59 0,-7.51 -6.09,-13.59 -13.6,-13.59 z m -45.3,-27.19 h 22.65 22.65 c 7.51,0 13.6,-6.08 13.6,-13.59 0,-7.51 -6.09,-13.59 -13.6,-13.59 H 120.08 97.43 c -7.51,0 -13.59,6.08 -13.59,13.59 0,7.51 6.08,13.59 13.59,13.59 z"
           style="fill:#415a6b"
           id="path126" />
        <g
           id="g140">
          <path
             d="m 99.763,171.198 h 22.65 22.65 c 4.552,0 8.571,2.241 11.04,5.673 0.141,-0.786 0.227,-1.59 0.227,-2.416 0,-7.51 -6.09,-13.59 -13.6,-13.59 H 120.08 97.43 c -7.51,0 -13.59,6.08 -13.59,13.59 0,2.956 0.955,5.685 2.56,7.917 1.14,-6.354 6.679,-11.174 13.363,-11.174 z"
             style="fill:#304754"
             id="path128" />
          <path
             d="m 99.763,225.558 h 22.65 22.65 c 4.552,0 8.572,2.246 11.041,5.68 0.141,-0.785 0.227,-1.588 0.227,-2.413 0,-7.51 -6.09,-13.6 -13.6,-13.6 H 120.081 97.43 c -7.51,0 -13.59,6.09 -13.59,13.6 0,2.956 0.955,5.685 2.56,7.917 1.14,-6.356 6.679,-11.184 13.363,-11.184 z"
             style="fill:#304754"
             id="path130" />
          <path
             d="m 99.763,116.828 h 22.65 22.65 c 4.552,0 8.571,2.242 11.04,5.673 0.141,-0.786 0.227,-1.59 0.227,-2.417 0,-7.51 -6.09,-13.59 -13.6,-13.59 H 120.08 97.43 c -7.51,0 -13.59,6.08 -13.59,13.59 0,2.96 0.955,5.689 2.559,7.92 1.139,-6.354 6.679,-11.176 13.364,-11.176 z"
             style="fill:#304754"
             id="path132" />
          <path
             d="m 99.763,388.668 h 22.65 22.65 c 4.552,0 8.571,2.241 11.04,5.673 0.141,-0.785 0.227,-1.59 0.227,-2.416 0,-7.51 -6.09,-13.59 -13.6,-13.59 H 120.08 97.43 c -7.51,0 -13.59,6.08 -13.59,13.59 0,2.956 0.955,5.686 2.56,7.917 1.14,-6.354 6.679,-11.174 13.363,-11.174 z"
             style="fill:#304754"
             id="path134" />
          <path
             d="m 99.763,334.298 h 22.65 22.65 c 4.552,0 8.572,2.241 11.041,5.674 0.141,-0.785 0.227,-1.59 0.227,-2.416 0,-7.511 -6.09,-13.591 -13.6,-13.591 H 120.081 97.43 c -7.51,0 -13.59,6.08 -13.59,13.591 0,2.96 0.955,5.689 2.559,7.92 1.139,-6.356 6.679,-11.178 13.364,-11.178 z"
             style="fill:#304754"
             id="path136" />
          <path
             d="m 99.763,279.928 h 22.65 22.65 c 4.552,0 8.571,2.245 11.04,5.678 0.142,-0.787 0.228,-1.593 0.228,-2.42 0,-7.5 -6.09,-13.591 -13.6,-13.591 H 120.081 97.43 c -7.51,0 -13.59,6.091 -13.59,13.591 0,2.96 0.955,5.69 2.559,7.923 1.139,-6.35 6.679,-11.181 13.364,-11.181 z"
             style="fill:#304754"
             id="path138" />
        </g>
        <polygon
           points="192.57,106.495 391.92,106.495 391.92,142.735 391.92,197.105 192.57,197.105 "
           style="fill:#ffffff"
           id="polygon142" />
        <polygon
           points="391.92,116.995 391.92,106.495 192.57,106.495 192.57,197.105 202.82,197.105 202.82,116.995 "
           style="fill:#eae8e8"
           id="polygon144" />
        <path
           d="m 312.61,233.355 c 13.779,0 24.939,11.37 24.939,25.38 0,25.39 -24.939,39.84 -49.85,65.229 -24.91,-25.39 -49.82,-39.84 -49.82,-65.229 0,-14.01 11.16,-25.38 24.91,-25.38 12.45,0 18.68,6.34 24.91,19.04 6.231,-12.7 12.461,-19.04 24.911,-19.04 z"
           style="fill:#ef3e5c"
           id="path146" />
        <g
           id="g150">
          <path
             d="m 253.213,263.519 c 0,-13.839 10.891,-25.094 24.408,-25.367 -3.901,-3.197 -8.582,-4.796 -14.831,-4.796 -13.75,0 -24.91,11.37 -24.91,25.38 0,25.39 24.91,39.84 49.82,65.229 1.719,-1.751 3.436,-3.446 5.146,-5.101 -21.087,-19.672 -39.633,-33.439 -39.633,-55.345 z"
             style="fill:#d32f53"
             id="path148" />
        </g>
        <path
           d="M 391.92,365.205 H 192.57 c -2.761,0 -5,-2.238 -5,-5 0,-2.762 2.239,-5 5,-5 h 199.35 c 2.762,0 5,2.238 5,5 0,2.762 -2.238,5 -5,5 z"
           style="fill:#ef3e5c"
           id="path152" />
        <path
           d="M 391.92,401.455 H 192.57 c -2.761,0 -5,-2.238 -5,-5 0,-2.762 2.239,-5 5,-5 h 199.35 c 2.762,0 5,2.238 5,5 0,2.762 -2.238,5 -5,5 z"
           style="fill:#ef3e5c"
           id="path154" />
        <path
           d="M 342.55,147.735 H 197.57 c -2.761,0 -5,-2.239 -5,-5 0,-2.761 2.239,-5 5,-5 h 144.98 c 2.762,0 5,2.239 5,5 0,2.761 -2.238,5 -5,5 z"
           style="fill:#eae8e8"
           id="path156" />
      </g>
    </g>
    <g
       id="Layer_1"
       clip-path="url(#clipPath52)"
       transform="matrix(0.55877948,0,0,0.51282952,-40.238023,-25.450767)" />
  </g>
</svg>
