<?xml version="1.0" ?><svg enable-background="new 0 0 512 512" id="Layer_1" version="1.1" viewBox="0 0 512 512" xml:space="preserve" xmlns="http://www.w3.org/2000/svg" xmlns:xlink="http://www.w3.org/1999/xlink"><g><g><path d="M328.6,65.6h-29.5c-1.7-6.4-5.1-12.2-9.7-16.7c-6.8-6.8-16.2-11-26.5-11h-13.8    c-17.3,0-31.9,11.8-36.2,27.7h-29.5c2.1-14.4,8.9-27.4,18.7-37.2c12-12,28.6-19.5,47-19.5h13.8C296.3,8.9,323.9,33.5,328.6,65.6z" fill="#754C29"/><g><path d="M328.6,58.1c-9.8,0-19.7,0-29.5,0c2.4,1.8,4.8,3.7,7.2,5.5c-3.8-12.9-12.7-23.8-25.1-29.2c-9-4-18.1-4-27.7-4     c-9.4,0-18.4,1.1-26.8,5.9c-10.4,5.9-17.8,15.9-21.1,27.3c2.4-1.8,4.8-3.7,7.2-5.5c-9.8,0-19.7,0-29.5,0c2.4,3.2,4.8,6.3,7.2,9.5     c4.6-29.1,28.8-50.9,58.5-51.2c7.3-0.1,15-0.5,22.3,0.6c11.8,1.7,23.1,7.1,31.8,15.3c10,9.5,16.1,21.7,18.2,35.3     c0.6,4,5.6,6.2,9.2,5.2c4.3-1.2,5.9-5.2,5.2-9.2c-4.6-29-27.1-53.4-55.7-60.2c-10.1-2.4-20.4-2.1-30.7-2     c-16.2,0.1-32,5.2-44.9,15c-15.1,11.5-25.4,28.4-28.4,47.2c-0.8,4.7,1.9,9.5,7.2,9.5c9.8,0,19.7,0,29.5,0c3.3,0,6.3-2.3,7.2-5.5     c2.3-8,7.5-14.7,14.8-18.7c5.9-3.2,12.1-3.5,18.6-3.5c6.1,0,12.4-0.4,18.3,1.4c9.9,3,17.1,11.1,20,20.9c0.9,3.2,3.9,5.5,7.2,5.5     c9.8,0,19.7,0,29.5,0C338.3,73.1,338.3,58.1,328.6,58.1z"/></g></g><g><path d="M111.2,352.3v150.8H38.8V395.4c0-23.8,19.3-43.1,43.1-43.1H111.2z" fill="#9B8579"/><g><path d="M103.7,352.3c0,44,0,88.1,0,132.1c0,6.2,0,12.5,0,18.7c2.5-2.5,5-5,7.5-7.5c-24.1,0-48.3,0-72.4,0c2.5,2.5,5,5,7.5,7.5     c0-23.5,0-47.1,0-70.6c0-11.5,0-23,0-34.6c0-15.2,7.2-29.3,21.7-35.4c7.3-3.1,14.9-2.7,22.7-2.7c6.8,0,13.7,0,20.5,0     c9.7,0,9.7-15,0-15c-13.1,0-27.3-1.5-40.2,1.2c-23.1,4.8-39.5,26.1-39.8,49.4c-0.3,25.4,0,50.8,0,76.2c0,10.5,0,21,0,31.5     c0,4.1,3.4,7.5,7.5,7.5c24.1,0,48.3,0,72.4,0c4.1,0,7.5-3.4,7.5-7.5c0-44,0-88.1,0-132.1c0-6.2,0-12.5,0-18.7     C118.7,342.6,103.7,342.6,103.7,352.3z"/></g></g><g><path d="M473.2,395.4v107.8h-72.4V352.3h29.3C453.9,352.3,473.2,371.6,473.2,395.4z" fill="#9B8579"/><g><path d="M465.7,395.4c0,31.4,0,62.8,0,94.2c0,4.5,0,9.1,0,13.6c2.5-2.5,5-5,7.5-7.5c-24.1,0-48.3,0-72.4,0c2.5,2.5,5,5,7.5,7.5     c0-44,0-88.1,0-132.1c0-6.2,0-12.5,0-18.7c-2.5,2.5-5,5-7.5,7.5c10,0,20-0.2,30,0C450.2,360.2,465.4,376.2,465.7,395.4     c0.2,9.6,15.2,9.7,15,0c-0.4-23.7-17.3-45.4-41.1-49.6c-12.6-2.2-26.1-0.9-38.8-0.9c-4.1,0-7.5,3.4-7.5,7.5c0,44,0,88.1,0,132.1     c0,6.2,0,12.5,0,18.7c0,4.1,3.4,7.5,7.5,7.5c24.1,0,48.3,0,72.4,0c4.1,0,7.5-3.4,7.5-7.5c0-31.4,0-62.8,0-94.2     c0-4.5,0-9.1,0-13.6C480.7,385.7,465.7,385.7,465.7,395.4z"/></g></g><g><path d="M400.8,259.4v243.7h-51.6v-60.5h0.1v-29h-0.1v-14.5c0-28.8-24.7-52.1-55-52.1h-76.3    c-30.3,0-55,23.4-55,52.1v104h-51.6V259.4h42.5V284c0,4,1.6,7.6,4.2,10.2s6.2,4.2,10.2,4.2c8,0,14.5-6.5,14.5-14.5v-24.6h42.7    v13.3c0,16.9,13.7,30.7,30.7,30.7h0.1c16.9,0,30.6-13.8,30.6-30.7v-13.3h42.7V284c0,4,1.6,7.6,4.2,10.2s6.2,4.2,10.2,4.2    c8,0,14.5-6.5,14.5-14.5v-24.6H400.8z" fill="#EF4136"/><g><path d="M393.3,259.4c0,27.5,0,55,0,82.5c0,43.7,0,87.3,0,131c0,10.1,0,20.1,0,30.2c2.5-2.5,5-5,7.5-7.5c-17.2,0-34.4,0-51.6,0     c2.5,2.5,5,5,7.5,7.5c0-20.2,0-40.4,0-60.5c-2.5,2.5-5,5-7.5,7.5c0,0,0.1,0,0.1,0c4.1,0,7.5-3.4,7.5-7.5c0-9.7,0-19.3,0-29     c0-4.1-3.4-7.5-7.5-7.5c0,0-0.1,0-0.1,0c2.5,2.5,5,5,7.5,7.5c0-14.4,0.2-28-6.6-41.2c-8.9-17.1-26.5-29.1-45.4-32     c-9-1.4-18.3-0.9-27.4-0.9c-13.3,0-26.6,0-39.9,0c-8.3,0-16.9-0.5-25.2,0.3c-19.6,1.9-37.8,12.4-48.3,29.3     c-11.8,19.1-8.5,43.9-8.5,65.3c0,22.9,0,45.8,0,68.7c2.5-2.5,5-5,7.5-7.5c-17.2,0-34.4,0-51.6,0c2.5,2.5,5,5,7.5,7.5     c0-27.5,0-55,0-82.5c0-43.7,0-87.3,0-131c0-10.1,0-20.1,0-30.2c-2.5,2.5-5,5-7.5,7.5c14.2,0,28.3,0,42.5,0c-2.5-2.5-5-5-7.5-7.5     c0,7.4,0,14.9,0,22.3c0,12.9,8.6,24.8,22.7,24.3c13.4-0.5,21.3-11.7,21.3-24.3c0-7.4,0-14.9,0-22.3c-2.5,2.5-5,5-7.5,7.5     c14.2,0,28.5,0,42.7,0c-2.5-2.5-5-5-7.5-7.5c0,9.9-0.7,19.7,3.4,29c6,13.5,20,22.5,34.8,22.4c14.5,0,28.3-8.7,34.4-21.9     c4.4-9.4,3.7-19.5,3.7-29.6c-2.5,2.5-5,5-7.5,7.5c14.2,0,28.5,0,42.7,0c-2.5-2.5-5-5-7.5-7.5c0,7.4,0,14.9,0,22.3     c0,12.9,8.6,24.8,22.7,24.3c13.4-0.5,21.3-11.7,21.3-24.3c0-7.4,0-14.9,0-22.3c-2.5,2.5-5,5-7.5,7.5c14.2,0,28.3,0,42.5,0     c9.7,0,9.7-15,0-15c-14.2,0-28.3,0-42.5,0c-4.1,0-7.5,3.4-7.5,7.5c0,5.9,0,11.8,0,17.6c0,5.2,1,13.6-6.6,14     c-8.2,0.4-7.4-8.5-7.4-14c0-5.9,0-11.8,0-17.6c0-4.1-3.4-7.5-7.5-7.5c-14.2,0-28.5,0-42.7,0c-4.1,0-7.5,3.4-7.5,7.5     c0,6.3,0.9,13.3-0.8,19.4c-2.7,9.9-12,17-22.3,17c-10,0-19.3-6.7-22.2-16.4c-1.9-6.3-1-13.5-1-20.1c0-4.1-3.4-7.5-7.5-7.5     c-14.2,0-28.5,0-42.7,0c-4.1,0-7.5,3.4-7.5,7.5c0,5.9,0,11.8,0,17.6c0,5.2,1,13.6-6.6,14c-8.2,0.4-7.4-8.5-7.4-14     c0-5.9,0-11.8,0-17.6c0-4.1-3.4-7.5-7.5-7.5c-14.2,0-28.3,0-42.5,0c-4.1,0-7.5,3.4-7.5,7.5c0,27.5,0,55,0,82.5     c0,43.7,0,87.3,0,131c0,10.1,0,20.1,0,30.2c0,4.1,3.4,7.5,7.5,7.5c17.2,0,34.4,0,51.6,0c4.1,0,7.5-3.4,7.5-7.5c0-18,0-36,0-54     c0-11.7,0-23.5,0-35.2c0-6.2-0.4-12.6,0.2-18.8c1.5-16.7,13.6-31.1,28.9-37.1c9.1-3.6,18.2-3.5,27.7-3.5c21.8,0,43.6,0,65.4,0     c15.5,0,30.4,5.9,40.1,18.3c5.5,7.1,8.8,15.9,9.1,24.9c0.2,5.3,0,10.6,0,15.8c0,4.1,3.4,7.5,7.5,7.5c0,0,0.1,0,0.1,0     c-2.5-2.5-5-5-7.5-7.5c0,9.7,0,19.3,0,29c2.5-2.5,5-5,7.5-7.5c0,0-0.1,0-0.1,0c-4.1,0-7.5,3.4-7.5,7.5c0,20.2,0,40.4,0,60.5     c0,4.1,3.4,7.5,7.5,7.5c17.2,0,34.4,0,51.6,0c4.1,0,7.5-3.4,7.5-7.5c0-27.5,0-55,0-82.5c0-43.7,0-87.3,0-131     c0-10.1,0-20.1,0-30.2C408.3,249.7,393.3,249.7,393.3,259.4z"/></g></g><g><path d="M429.7,94.5v135.9c0,8-3.2,15.2-8.5,20.5c-5.2,5.2-12.5,8.5-20.5,8.5h-42.5V65.6h42.5    C416.8,65.6,429.7,78.5,429.7,94.5z" fill="#9B8579"/><g><path d="M422.2,94.5c0,26.6,0,53.3,0,79.9c0,15.5,0,31,0,46.5c0,3.1,0,6.2,0,9.3c-0.2,12-9.4,21.4-21.5,21.7     c-14.1,0.2-28.3,0-42.5,0c2.5,2.5,5,5,7.5,7.5c0-21.8,0-43.6,0-65.5c0-34.8,0-69.6,0-104.4c0-8,0-16,0-24c-2.5,2.5-5,5-7.5,7.5     c11.4,0,22.8,0,34.3,0c4.7,0,9.7-0.4,14.3,0.9C416.1,76.6,422,85.2,422.2,94.5c0.2,9.6,15.2,9.7,15,0c-0.3-12.6-6.5-24.3-17.3-31     c-7.1-4.4-14.9-5.4-23.1-5.4c-12.8,0-25.7,0-38.5,0c-4.1,0-7.5,3.4-7.5,7.5c0,21.8,0,43.6,0,65.5c0,34.8,0,69.6,0,104.4     c0,8,0,16,0,24c0,4.1,3.4,7.5,7.5,7.5c13.9,0,27.9,0.1,41.9,0c13.5-0.1,26.5-7.2,32.8-19.4c3.3-6.4,4.3-13.2,4.3-20.2     c0-32.8,0-65.6,0-98.4c0-11.4,0-22.9,0-34.3C437.2,84.9,422.2,84.9,422.2,94.5z"/></g></g><g><path d="M329.4,75.3v184H182.6v-184c0-3.3,0.2-6.6,0.7-9.8h145.3C329.1,68.8,329.4,72,329.4,75.3z" fill="#9B8579"/><g><path d="M321.9,75.3c0,20.7,0,41.4,0,62.1c0,33,0,66.1,0,99.1c0,7.6,0,15.2,0,22.8c2.5-2.5,5-5,7.5-7.5c-42.8,0-85.5,0-128.3,0     c-6.1,0-12.3,0-18.4,0c2.5,2.5,5,5,7.5,7.5c0-21.3,0-42.7,0-64c0-33.3,0-66.6,0-99.9c0-9.1-0.8-18.9,0.5-28     c-2.4,1.8-4.8,3.7-7.2,5.5c42.4,0,84.8,0,127.3,0c6,0,12,0,18,0c-2.4-1.8-4.8-3.7-7.2-5.5C321.8,70.1,321.8,72.7,321.9,75.3     c0.1,9.6,15.1,9.7,15,0c0-4-0.4-7.8-1-11.8c-0.4-3.2-4.3-5.5-7.2-5.5c-42.4,0-84.8,0-127.3,0c-6,0-12,0-18,0     c-2.9,0-6.8,2.3-7.2,5.5c-1.2,8.9-1,17.8-1,26.7c0,14.5,0,28.9,0,43.4c0,33.9,0,67.9,0,101.8c0,8,0,15.9,0,23.9     c0,4.1,3.4,7.5,7.5,7.5c42.8,0,85.5,0,128.3,0c6.1,0,12.3,0,18.4,0c4.1,0,7.5-3.4,7.5-7.5c0-20.7,0-41.4,0-62.1     c0-33,0-66.1,0-99.1c0-7.6,0-15.2,0-22.8C336.9,65.7,321.9,65.7,321.9,75.3z"/></g></g><g><g><path d="M329.4,58.1c-0.2,0-0.5,0-0.7,0c-1.9,0-3.9,0.8-5.3,2.2c-0.7,0.7-1.2,1.5-1.6,2.4c-0.5,0.9-0.7,1.9-0.6,2.9     c0.1,1.9,0.7,4,2.2,5.3c1.5,1.3,3.3,2.2,5.3,2.2c0.2,0,0.5,0,0.7,0c1.9,0,3.9-0.8,5.3-2.2c0.7-0.7,1.2-1.5,1.6-2.4     c0.5-0.9,0.7-1.9,0.6-2.9c-0.1-1.9-0.7-4-2.2-5.3C333.2,58.9,331.4,58.1,329.4,58.1L329.4,58.1z"/></g></g><g><path d="M153.7,65.6v193.8h-42.5c-16,0-29-13-29-29V94.5c0-16,13-29,29-29H153.7z" fill="#9B8579"/><g><path d="M146.2,65.6c0,21.8,0,43.6,0,65.5c0,34.8,0,69.6,0,104.4c0,8,0,16,0,24c2.5-2.5,5-5,7.5-7.5c-9,0-18.1,0-27.1,0     c-9.4,0-20.6,1.7-28.6-4.5c-7-5.4-8.2-13.2-8.2-21.3c0-7.8,0-15.7,0-23.5c0-23.9,0-47.9,0-71.8c0-9.2,0-18.4,0-27.7     c0-5.5-0.6-11.4,1.5-16.6c3.3-8.1,11.3-13.2,19.9-13.4c3.6-0.1,7.1,0,10.7,0c10.6,0,21.2,0,31.7,0c9.7,0,9.7-15,0-15     c-9.8,0-19.7,0-29.5,0c-12.8,0-25.1-0.5-35.8,8.1c-9.7,7.7-13.6,19-13.6,31c0,7.7,0,15.5,0,23.2c0,25.2,0,50.4,0,75.7     c0,9.3,0,18.6,0,27.8c0,8.8,0.4,17.2,5.1,25.1c5.4,9,14.8,15.7,25.2,17.3c4.9,0.8,9.8,0.6,14.7,0.6c11.3,0,22.6,0,33.9,0     c4.1,0,7.5-3.4,7.5-7.5c0-21.8,0-43.6,0-65.5c0-34.8,0-69.6,0-104.4c0-8,0-16,0-24C161.2,55.9,146.2,55.9,146.2,65.6z"/></g></g><g><g><path d="M183.4,58.1c-0.2,0-0.5,0-0.7,0c-1.9,0-3.9,0.8-5.3,2.2c-0.7,0.7-1.2,1.5-1.6,2.4c-0.5,0.9-0.7,1.9-0.6,2.9     c0.1,1.9,0.7,4,2.2,5.3c1.5,1.3,3.3,2.2,5.3,2.2c0.2,0,0.5,0,0.7,0c1.9,0,3.9-0.8,5.3-2.2c0.7-0.7,1.2-1.5,1.6-2.4     c0.5-0.9,0.7-1.9,0.6-2.9c-0.1-1.9-0.7-4-2.2-5.3C187.2,58.9,185.4,58.1,183.4,58.1L183.4,58.1z"/></g></g><g><rect fill="#9B8579" height="60.5" width="186.3" x="162.8" y="442.6"/><g><path d="M341.7,442.6c0,20.2,0,40.4,0,60.5c2.5-2.5,5-5,7.5-7.5c-20.9,0-41.8,0-62.7,0c-33.5,0-67,0-100.6,0c-7.7,0-15.3,0-23,0     c2.5,2.5,5,5,7.5,7.5c0-20.2,0-40.4,0-60.5c-2.5,2.5-5,5-7.5,7.5c20.9,0,41.8,0,62.7,0c33.5,0,67,0,100.6,0c7.7,0,15.3,0,23,0     c9.7,0,9.7-15,0-15c-20.9,0-41.8,0-62.7,0c-33.5,0-67,0-100.6,0c-7.7,0-15.3,0-23,0c-4.1,0-7.5,3.4-7.5,7.5c0,20.2,0,40.4,0,60.5     c0,4.1,3.4,7.5,7.5,7.5c20.9,0,41.8,0,62.7,0c33.5,0,67,0,100.6,0c7.7,0,15.3,0,23,0c4.1,0,7.5-3.4,7.5-7.5c0-20.2,0-40.4,0-60.5     C356.7,432.9,341.7,432.9,341.7,442.6z"/></g></g><g><path d="M349.2,399.1v14.5H162.8v-14.5c0-28.8,24.7-52.1,55-52.1h76.3C324.5,347,349.2,370.4,349.2,399.1z" fill="#9B8579"/><g><path d="M341.7,399.1c0,4.8,0,9.7,0,14.5c2.5-2.5,5-5,7.5-7.5c-20.9,0-41.8,0-62.7,0c-33.5,0-67,0-100.6,0c-7.7,0-15.3,0-23,0     c2.5,2.5,5,5,7.5,7.5c0-6.1-0.4-12.4,0.2-18.5c0.9-9.8,5.5-19.1,12.4-26.1c11.1-11.3,25.3-14.5,40.5-14.5c14.3,0,28.6,0,42.9,0     c10.2,0,20.5-0.4,30.7,0.1C320.8,355.7,341.3,374.9,341.7,399.1c0.1,9.6,15.1,9.7,15,0c-0.3-25.5-17-47.2-40.7-55.9     c-13.2-4.8-27.5-3.8-41.3-3.8c-16.3,0-32.6,0-48.8,0c-4.3,0-8.6-0.1-12.9,0.2c-12.9,1.1-25.1,5.8-35.2,13.8     c-10.5,8.3-18.3,20.4-21,33.6c-1.8,8.7-1.3,17.7-1.3,26.5c0,4.1,3.4,7.5,7.5,7.5c20.9,0,41.8,0,62.7,0c33.5,0,67,0,100.6,0     c7.7,0,15.3,0,23,0c4.1,0,7.5-3.4,7.5-7.5c0-4.8,0-9.7,0-14.5C356.7,389.5,341.7,389.5,341.7,399.1z"/></g></g><g><path d="M182.6,65.6V284c0,8-6.5,14.5-14.5,14.5c-4,0-7.6-1.6-10.2-4.2s-4.2-6.2-4.2-10.2V65.6H182.6z" fill="#F7941E"/><g><path d="M175.1,65.6c0,25.9,0,51.8,0,77.7c0,39.8,0,79.6,0,119.4c0,5.4,0,10.7,0,16.1c0,2.4,0.4,5.5-0.4,7.7     c-2.2,6-11.1,6-13.2-0.1c-0.4-1.2-0.4-2.3-0.4-3.6c0-3.7,0-7.4,0-11.2c0-37.4,0-74.8,0-112.2c0-19.8,0-39.5,0-59.3     c0-10.9,0.6-22,0-32.9c0-0.5,0-1.1,0-1.6c-2.5,2.5-5,5-7.5,7.5c9.7,0,19.3,0,29,0c9.7,0,9.7-15,0-15c-9.7,0-19.3,0-29,0     c-4.1,0-7.5,3.4-7.5,7.5c0,27.5,0,55,0,82.5c0,40,0,80.1,0,120.1c0,12.3-2,26.5,10.1,34.3c14.8,9.5,33.2-1.7,33.9-18.5     c0.1-2.6,0-5.2,0-7.9c0-37.1,0-74.2,0-111.3c0-32.5,0.7-65.1,0-97.5c0-0.6,0-1.1,0-1.7C190.1,55.9,175.1,55.9,175.1,65.6z"/></g></g><g><path d="M358.3,65.6V284c0,8-6.5,14.5-14.5,14.5c-4,0-7.6-1.6-10.2-4.2s-4.2-6.2-4.2-10.2V65.6H358.3z" fill="#F7941E"/><g><path d="M350.8,65.6c0,25.9,0,51.8,0,77.7c0,39.8,0,79.6,0,119.4c0,5.4,0,10.7,0,16.1c0,2.4,0.4,5.5-0.4,7.7     c-2.2,6-11.1,6-13.2-0.1c-0.4-1.2-0.4-2.3-0.4-3.6c0-3.7,0-7.4,0-11.2c0-37.4,0-74.8,0-112.2c0-19.8,0-39.5,0-59.3     c0-10.9,0.6-22,0-32.9c0-0.5,0-1.1,0-1.6c-2.5,2.5-5,5-7.5,7.5c9.7,0,19.3,0,29,0c9.7,0,9.7-15,0-15c-9.7,0-19.3,0-29,0     c-4.1,0-7.5,3.4-7.5,7.5c0,27.5,0,55,0,82.5c0,40,0,80.1,0,120.1c0,12.3-2,26.5,10.1,34.3c14.8,9.5,33.2-1.7,33.9-18.5     c0.1-2.6,0-5.2,0-7.9c0-37.1,0-74.2,0-111.3c0-32.5,0.7-65.1,0-97.5c0-0.6,0-1.1,0-1.7C365.8,55.9,350.8,55.9,350.8,65.6z"/></g></g><g><path d="M286.7,259.4v13.3c0,16.9-13.7,30.6-30.6,30.7H256c-16.9,0-30.7-13.7-30.7-30.7v-13.3H286.7z" fill="#F7941E"/><g><path d="M279.2,259.4c0,6.3,0.9,13.3-0.8,19.4c-2.7,9.9-12,17-22.3,17c-10,0-19.3-6.7-22.2-16.4c-1.9-6.3-1-13.5-1-20.1     c-2.5,2.5-5,5-7.5,7.5c20.4,0,40.9,0,61.3,0c9.7,0,9.7-15,0-15c-20.4,0-40.9,0-61.3,0c-4.1,0-7.5,3.4-7.5,7.5     c0,9.9-0.7,19.7,3.4,29c6,13.5,20,22.5,34.8,22.4c14.5,0,28.3-8.7,34.4-21.9c4.4-9.4,3.7-19.5,3.7-29.6     C294.2,249.7,279.2,249.7,279.2,259.4z"/></g></g><g><rect fill="#F7941E" height="29" width="186.3" x="162.8" y="413.6"/><g><path d="M341.7,413.6c0,9.7,0,19.3,0,29c2.5-2.5,5-5,7.5-7.5c-20.9,0-41.8,0-62.7,0c-33.5,0-67,0-100.6,0c-7.7,0-15.3,0-23,0     c2.5,2.5,5,5,7.5,7.5c0-9.7,0-19.3,0-29c-2.5,2.5-5,5-7.5,7.5c20.9,0,41.8,0,62.7,0c33.5,0,67,0,100.6,0c7.7,0,15.3,0,23,0     c9.7,0,9.7-15,0-15c-20.9,0-41.8,0-62.7,0c-33.5,0-67,0-100.6,0c-7.7,0-15.3,0-23,0c-4.1,0-7.5,3.4-7.5,7.5c0,9.7,0,19.3,0,29     c0,4.1,3.4,7.5,7.5,7.5c20.9,0,41.8,0,62.7,0c33.5,0,67,0,100.6,0c7.7,0,15.3,0,23,0c4.1,0,7.5-3.4,7.5-7.5c0-9.7,0-19.3,0-29     C356.7,403.9,341.7,403.9,341.7,413.6z"/></g></g><g><g><path d="M341.8,413.6c0,9.7,0,19.3,0,29c2.5-2.5,5-5,7.5-7.5c0,0-0.1,0-0.1,0c2.5,2.5,5,5,7.5,7.5c0-9.7,0-19.3,0-29     c-2.5,2.5-5,5-7.5,7.5c0,0,0.1,0,0.1,0c9.7,0,9.7-15,0-15c0,0-0.1,0-0.1,0c-4.1,0-7.5,3.4-7.5,7.5c0,9.7,0,19.3,0,29     c0,4.1,3.4,7.5,7.5,7.5c0,0,0.1,0,0.1,0c4.1,0,7.5-3.4,7.5-7.5c0-9.7,0-19.3,0-29C356.8,403.9,341.8,403.9,341.8,413.6z"/></g></g></g></svg>