<?xml version="1.0" ?><svg viewBox="0 0 64 64" xmlns="http://www.w3.org/2000/svg"><defs><style>.cls-1{fill:#9e724a;}.cls-2{fill:#aa7b50;}.cls-3{fill:#eac180;}.cls-4{fill:#fcd08a;}.cls-5{fill:#c73b40;}.cls-6{fill:#d26266;}</style></defs><title/><g data-name="Layer 25" id="Layer_25"><rect class="cls-1" height="5" rx="1" width="56" x="8"/><rect class="cls-2" height="5" rx="1" width="56" x="8" y="3"/><path class="cls-3" d="M26.259,16a1,1,0,0,0-.306-.72L23.589,13l2.364-2.28a1,1,0,0,0,0-1.44L23.589,7l2.364-2.28A1,1,0,0,0,25.259,3H21.111a1.006,1.006,0,0,0-.694.28l-3.111,3a1,1,0,0,0,0,1.44L19.671,10l-2.365,2.28a1,1,0,0,0,0,1.44L19.671,16l-2.365,2.28a1,1,0,0,0,0,1.44L19.671,22l-2.365,2.28a1,1,0,0,0,0,1.44L19.671,28l-2.365,2.28a1,1,0,0,0,0,1.44l3.111,3a1.006,1.006,0,0,0,.694.28h4.148a1,1,0,0,0,.694-1.72L23.589,31l2.364-2.28a1,1,0,0,0,0-1.44L23.589,25l2.364-2.28a1,1,0,0,0,0-1.44L23.589,19l2.364-2.28A1,1,0,0,0,26.259,16Z"/><path class="cls-4" d="M30.407,16a1,1,0,0,0-.3-.72L27.736,13,30.1,10.72a1,1,0,0,0,0-1.44L27.736,7,30.1,4.72a1,1,0,0,0-.7-1.72H25.259a1.006,1.006,0,0,0-.7.28l-3.11,3a1,1,0,0,0,0,1.44L23.818,10l-2.364,2.28a1,1,0,0,0,0,1.44L23.818,16l-2.364,2.28a1,1,0,0,0,0,1.44L23.818,22l-2.364,2.28a1,1,0,0,0,0,1.44L23.818,28l-2.364,2.28a1,1,0,0,0,0,1.44l3.11,3a1.006,1.006,0,0,0,.7.28h4.148a1,1,0,0,0,.7-1.72L27.736,31,30.1,28.72a1,1,0,0,0,0-1.44L27.736,25,30.1,22.72a1,1,0,0,0,0-1.44L27.736,19,30.1,16.72A1,1,0,0,0,30.407,16Z"/><path class="cls-3" d="M34.556,16a1,1,0,0,0-.306-.72L31.885,13l2.365-2.28a1,1,0,0,0,0-1.44L31.885,7,34.25,4.72A1,1,0,0,0,33.556,3H29.407a1,1,0,0,0-.694.28l-3.111,3a1,1,0,0,0,0,1.44L27.967,10,25.6,12.28a1,1,0,0,0,0,1.44L27.967,16,25.6,18.28a1,1,0,0,0,0,1.44L27.967,22,25.6,24.28a1,1,0,0,0,0,1.44L27.967,28,25.6,30.28a1,1,0,0,0,0,1.44l3.111,3a1,1,0,0,0,.694.28h4.149a1,1,0,0,0,.694-1.72L31.885,31l2.365-2.28a1,1,0,0,0,0-1.44L31.885,25l2.365-2.28a1,1,0,0,0,0-1.44L31.885,19l2.365-2.28A1,1,0,0,0,34.556,16Z"/><path class="cls-4" d="M38.7,16a1,1,0,0,0-.306-.72L36.033,13,38.4,10.72a1,1,0,0,0,0-1.44L36.033,7,38.4,4.72A1,1,0,0,0,37.7,3H33.556a1.006,1.006,0,0,0-.7.28l-3.111,3a1,1,0,0,0,0,1.44L32.115,10,29.75,12.28a1,1,0,0,0,0,1.44L32.115,16,29.75,18.28a1,1,0,0,0,0,1.44L32.115,22,29.75,24.28a1,1,0,0,0,0,1.44L32.115,28,29.75,30.28a1,1,0,0,0,0,1.44l3.111,3a1.006,1.006,0,0,0,.7.28H37.7a1,1,0,0,0,.694-1.72L36.033,31,38.4,28.72a1,1,0,0,0,0-1.44L36.033,25,38.4,22.72a1,1,0,0,0,0-1.44L36.033,19,38.4,16.72A1,1,0,0,0,38.7,16Z"/><path class="cls-3" d="M42.852,16a1,1,0,0,0-.306-.72L40.182,13l2.364-2.28a1,1,0,0,0,0-1.44L40.182,7l2.364-2.28A1,1,0,0,0,41.852,3H37.7a1,1,0,0,0-.694.28l-3.112,3a1,1,0,0,0,0,1.44L36.264,10,33.9,12.28a1,1,0,0,0,0,1.44L36.264,16,33.9,18.28a1,1,0,0,0,0,1.44L36.264,22,33.9,24.28a1,1,0,0,0,0,1.44L36.264,28,33.9,30.28a1,1,0,0,0,0,1.44l3.112,3A1,1,0,0,0,37.7,35h4.148a1,1,0,0,0,.694-1.72L40.182,31l2.364-2.28a1,1,0,0,0,0-1.44L40.182,25l2.364-2.28a1,1,0,0,0,0-1.44L40.182,19l2.364-2.28A1,1,0,0,0,42.852,16Z"/><path class="cls-4" d="M47,16a1,1,0,0,0-.306-.72L44.329,13l2.365-2.28a1,1,0,0,0,0-1.44L44.329,7l2.365-2.28A1,1,0,0,0,46,3H41.852a1.006,1.006,0,0,0-.7.28l-3.11,3a1,1,0,0,0,0,1.44L40.411,10l-2.364,2.28a1,1,0,0,0,0,1.44L40.411,16l-2.364,2.28a1,1,0,0,0,0,1.44L40.411,22l-2.364,2.28a1,1,0,0,0,0,1.44L40.411,28l-2.364,2.28a1,1,0,0,0,0,1.44l3.11,3a1.006,1.006,0,0,0,.7.28H46a1,1,0,0,0,.694-1.72L44.329,31l2.365-2.28a1,1,0,0,0,0-1.44L44.329,25l2.365-2.28a1,1,0,0,0,0-1.44L44.329,19l2.365-2.28A1,1,0,0,0,47,16Z"/><path class="cls-5" d="M63.692,32.3a1,1,0,0,0-.717-.3H1.025a1,1,0,0,0-1,1.032,31.99,31.99,0,0,0,63.948,0A1,1,0,0,0,63.692,32.3Z"/><path class="cls-6" d="M63.692,32.3a1,1,0,0,0-.717-.3h-2a1,1,0,0,1,1,1.032A31.836,31.836,0,0,1,31,63.976c.333.01.665.024,1,.024A31.848,31.848,0,0,0,63.974,33.032,1,1,0,0,0,63.692,32.3Z"/></g></svg>