<?xml version="1.0" encoding="UTF-8" standalone="no"?>
<svg
   xmlns:dc="http://purl.org/dc/elements/1.1/"
   xmlns:cc="http://creativecommons.org/ns#"
   xmlns:rdf="http://www.w3.org/1999/02/22-rdf-syntax-ns#"
   xmlns:svg="http://www.w3.org/2000/svg"
   xmlns="http://www.w3.org/2000/svg"
   xmlns:sodipodi="http://sodipodi.sourceforge.net/DTD/sodipodi-0.dtd"
   xmlns:inkscape="http://www.inkscape.org/namespaces/inkscape"
   version="1.1"
   viewBox="0 0 471 471.10001"
   xml:space="preserve"
   id="svg43"
   sodipodi:docname="rss2.svg"
   width="471"
   height="471.10001"
   inkscape:version="1.0.2 (e86c8708, 2021-01-15)"><metadata
     id="metadata49"><rdf:RDF><cc:Work
         rdf:about=""><dc:format>image/svg+xml</dc:format><dc:type
           rdf:resource="http://purl.org/dc/dcmitype/StillImage" /><dc:title></dc:title></cc:Work></rdf:RDF></metadata><defs
     id="defs47" /><sodipodi:namedview
     pagecolor="#ffffff"
     bordercolor="#666666"
     borderopacity="1"
     objecttolerance="10"
     gridtolerance="10"
     guidetolerance="10"
     inkscape:pageopacity="0"
     inkscape:pageshadow="2"
     inkscape:window-width="1680"
     inkscape:window-height="1050"
     id="namedview45"
     showgrid="false"
     fit-margin-top="0"
     fit-margin-left="0"
     fit-margin-right="0"
     fit-margin-bottom="0"
     inkscape:zoom="1.4355469"
     inkscape:cx="235"
     inkscape:cy="236"
     inkscape:window-x="0"
     inkscape:window-y="0"
     inkscape:window-maximized="0"
     inkscape:current-layer="svg43" /><g
     id="outerdark"
     transform="translate(-21,-20)"><path
       d="M 256.5,20 C 126.4,20 21,125.4 21,255.5 21,385.6 126.4,491 256.5,491 386.6,491 492,385.6 492,255.5 492,125.4 386.6,20 256.5,20 Z M 256,460.5 C 143.1,460.5 51.5,368.9 51.5,256 51.5,143.1 143.1,51.5 256,51.5 c 112.9,0 204.5,91.6 204.5,204.5 0,112.9 -91.6,204.5 -204.5,204.5 z"
       style="fill:#f7941e"
       id="path10" /></g><g
     id="outerlight"
     transform="translate(-21,-20)"><path
       d="m 423.1,89 -22.4,22.4 c 37,37 59.8,88.1 59.8,144.6 0,112.9 -91.6,204.5 -204.5,204.5 -56.4,0 -107.6,-22.9 -144.6,-59.8 L 90,422.1 c 92,92 241.1,92 333,0 91.9,-92 92,-241.1 0.1,-333.1 z"
       style="opacity:0.2;fill:#ffffff"
       id="path13" /></g><g
     id="innerdark"
     transform="translate(-21,-20)"><circle
       cx="256"
       cy="256"
       r="180"
       style="fill:#f7941e"
       id="circle16" /></g><g
     id="RSS"
     transform="translate(-21,-20)"><g
       id="g25"><circle
         cx="179.2"
         cy="331.5"
         r="28.6"
         style="fill:#e6e7e8"
         id="circle19" /><path
         d="m 288.7,360.1 h -40.5 c 0,-53.9 -43.7,-97.6 -97.6,-97.6 v 0 -40.5 c 76.3,-0.1 138.1,61.8 138.1,138.1 z"
         style="fill:#e6e7e8"
         id="path21" /><path
         d="M 317.3,360.1 C 317.3,268 242.7,193.4 150.6,193.4 V 151.7 C 265.7,151.7 359,245 359,360.1 Z"
         style="fill:#e6e7e8"
         id="path23" /></g></g><g
     id="innerlight"
     transform="translate(-21,-20)"><path
       d="M 128.1,382.6 C 57.8,312.3 57.8,198.3 128.1,128 198.4,57.7 312.4,57.7 382.7,128"
       style="opacity:0.2;fill:#ffffff"
       id="path28" /><g
       id="g30" /><g
       id="g32" /><g
       id="g34" /><g
       id="g36" /><g
       id="g38" /><g
       id="g40" /></g></svg>
