<?xml version="1.0" encoding="UTF-8" standalone="no"?>
<svg
   xmlns:dc="http://purl.org/dc/elements/1.1/"
   xmlns:cc="http://creativecommons.org/ns#"
   xmlns:rdf="http://www.w3.org/1999/02/22-rdf-syntax-ns#"
   xmlns:svg="http://www.w3.org/2000/svg"
   xmlns="http://www.w3.org/2000/svg"
   xmlns:sodipodi="http://sodipodi.sourceforge.net/DTD/sodipodi-0.dtd"
   xmlns:inkscape="http://www.inkscape.org/namespaces/inkscape"
   enable-background="new 0 0 72 72"
   height="42.193001"
   id="Layer_1"
   version="1.0"
   viewBox="0 0 42.194 42.193001"
   width="42.194"
   xml:space="preserve"
   sodipodi:docname="tree.svg"
   inkscape:version="1.0.2 (e86c8708, 2021-01-15)"><metadata
     id="metadata21"><rdf:RDF><cc:Work
         rdf:about=""><dc:format>image/svg+xml</dc:format><dc:type
           rdf:resource="http://purl.org/dc/dcmitype/StillImage" /><dc:title></dc:title></cc:Work></rdf:RDF></metadata><defs
     id="defs19" /><sodipodi:namedview
     pagecolor="#ffffff"
     bordercolor="#666666"
     borderopacity="1"
     objecttolerance="10"
     gridtolerance="10"
     guidetolerance="10"
     inkscape:pageopacity="0"
     inkscape:pageshadow="2"
     inkscape:window-width="1920"
     inkscape:window-height="1200"
     id="namedview17"
     showgrid="false"
     fit-margin-top="0"
     fit-margin-left="0"
     fit-margin-right="0"
     fit-margin-bottom="0"
     inkscape:zoom="10.208333"
     inkscape:cx="20.532"
     inkscape:cy="19.354"
     inkscape:window-x="0"
     inkscape:window-y="0"
     inkscape:window-maximized="0"
     inkscape:current-layer="Layer_1" /><g
     id="g14"
     transform="translate(-15.468,-16.646)"><path
       d="m 36.564,16.646 c -11.649,0 -21.096,9.444 -21.096,21.097 0,11.649 9.445,21.096 21.096,21.096 11.651,0 21.098,-9.445 21.098,-21.096 C 57.661,26.091 48.215,16.646 36.564,16.646"
       fill="#008245"
       id="path10" /><path
       d="m 38.135,51.837 h -2.729 v -5.051 c -4.506,0.07 -9.018,1.316 -13.188,-1.029 3.671,-2.408 8.129,-8.902 8.129,-8.902 0,0 -3.724,-0.446 -4.771,-1.236 3.772,-1.465 7.188,-7.084 7.188,-7.084 l -3.043,-0.059 7.006,-8.75 c 0,0 4.109,6.261 7.006,8.719 -1.055,0.386 -3.011,0.104 -3.011,0.104 0,0 3.302,5.513 7.174,7.064 -1.362,1.1 -4.859,1.136 -4.859,1.136 0,0 4.542,6.575 8.229,9.012 -4.167,2.35 -8.671,1.102 -13.129,1.025 v 5.052 h -0.002 z"
       fill="#ffffff"
       id="path12" /></g></svg>
