<?xml version="1.0" ?><svg data-name="Layer 1" id="Layer_1" viewBox="0 0 80 80" xmlns="http://www.w3.org/2000/svg"><defs><style>.cls-1{fill:#48ef48;}.cls-2{fill:#2dd32d;}.cls-3,.cls-4,.cls-6{fill:none;}.cls-3,.cls-4,.cls-5,.cls-6{stroke:#000;stroke-width:4px;}.cls-3,.cls-4{stroke-linejoin:round;}.cls-4,.cls-5,.cls-6{stroke-linecap:round;}.cls-5{fill:#ff5f5f;stroke-miterlimit:10;}.cls-6{stroke-linejoin:bevel;}</style></defs><title/><circle class="cls-1" cx="40" cy="40" r="35"/><path class="cls-2" d="M40,5c-1.0115,0-2.01.0526-3,.1367a34.9914,34.9914,0,0,1,0,69.7266c.99.0841,1.9885.1367,3,.1367A35,35,0,0,0,40,5Z"/><line class="cls-3" x1="5" x2="75" y1="40" y2="40"/><line class="cls-4" x1="35" x2="64" y1="55.9991" y2="56"/><line class="cls-4" x1="40" x2="40" y1="13" y2="67"/><path class="cls-5" d="M26.412,65.837a7.5288,7.5288,0,0,0-9.2341-11.7513.7219.7219,0,0,1-.7549,0,7.5811,7.5811,0,0,0-6.1071-.7634A7.4555,7.4555,0,0,0,5.2741,58.48,7.5609,7.5609,0,0,0,7.1889,65.837l7.5094,8.2351a2.8452,2.8452,0,0,0,4.2043,0Z"/><path class="cls-4" d="M30.18,73.6036A34.9609,34.9609,0,1,0,5.9424,48.1015"/><path class="cls-6" d="M33.6646,68.6646,40,75l6.7157-6.7158a40.0041,40.0041,0,0,0,0-56.5685L40,5l-6.7157,6.7157A40.0138,40.0138,0,0,0,22.0837,46.3406"/><line class="cls-4" x1="16" x2="71" y1="24" y2="24"/></svg>